M48
; DRILL file {KiCad 5.1.5-52549c5~84~ubuntu18.04.1} date Sat 22 Feb 2020 20:00:41 GMT
; FORMAT={-:-/ absolute / inch / decimal}
; #@! TF.CreationDate,2020-02-22T20:00:41+00:00
; #@! TF.GenerationSoftware,Kicad,Pcbnew,5.1.5-52549c5~84~ubuntu18.04.1
; #@! TF.FileFunction,Plated,1,2,PTH
FMAT,2
INCH
T1C0.0157
T2C0.0236
T3C0.0315
T4C0.0335
T5C0.0354
T6C0.0394
T7C0.0598
T8C0.1260
%
G90
G05
T1
X4.311Y-4.9921
X4.3189Y-4.5276
X4.3189Y-5.6063
X4.4528Y-7.3346
X4.4646Y-2.8701
X4.4921Y-5.8583
X4.4961Y-4.3307
X4.4961Y-4.4094
X4.5138Y-5.9469
X4.5205Y-6.0288
X4.5303Y-4.267
X4.5402Y-4.3654
X4.55Y-5.9895
X4.5766Y-5.687
X4.6102Y-6.315
X4.6142Y-4.4488
X4.6339Y-2.874
X4.6339Y-4.1634
X4.678Y-6.1853
X4.6811Y-4.3583
X4.685Y-3.7953
X4.7165Y-7.3386
X4.7323Y-4.311
X4.7441Y-5.4252
X4.7717Y-4.4488
X4.7795Y-5.811
X4.7913Y-4.7244
X4.811Y-6.1814
X4.811Y-6.3071
X4.815Y-6.4646
X4.8504Y-4.5669
X4.8543Y-6.689
X4.8701Y-4.3602
X4.874Y-3.4646
X4.8748Y-6.0288
X4.9016Y-6.2323
X4.9213Y-6.4213
X4.924Y-5.8418
X4.9291Y-6.0394
X4.9291Y-6.5787
X4.9685Y-3.7402
X4.9882Y-6.0827
X5.0394Y-7.3307
X5.0551Y-2.8819
X5.0709Y-4.311
X5.0709Y-4.3543
X5.0837Y-5.883
X5.1063Y-6.0827
X5.123Y-6.5473
X5.1417Y-6.2717
X5.2047Y-4.2323
X5.2095Y-5.9304
X5.2795Y-2.874
X5.2953Y-7.3346
X5.3425Y-4.3701
X5.3743Y-6.3855
X5.4213Y-4.3701
X5.4213Y-5.9843
X5.4459Y-4.3947
X5.4606Y-5.9843
X5.5591Y-5.9252
X5.7559Y-4.1339
X5.7559Y-6.3189
X5.7559Y-6.3583
X5.8346Y-4.1142
X5.8346Y-5.9882
X5.8701Y-5.8622
X5.8898Y-5.1535
X5.9528Y-6.4646
X5.9528Y-6.4961
X5.9646Y-6.6496
X5.9764Y-6.2165
X5.9961Y-4.3898
X6.0236Y-7.9528
X6.0236Y-8.0
X6.0236Y-8.0472
X6.0315Y-6.4567
X6.0512Y-7.378
X6.0748Y-7.5118
X6.0906Y-6.3583
X6.0906Y-6.3976
X6.1417Y-4.7874
X6.1417Y-4.9055
X6.1654Y-6.6142
X6.1693Y-7.7756
X6.2047Y-6.2441
X6.2205Y-6.8858
X6.2362Y-6.0709
X6.2559Y-5.9921
X6.2592Y-7.5308
X6.2638Y-6.5433
X6.2677Y-7.2047
X6.2677Y-7.4606
X6.2756Y-5.815
X6.2874Y-6.6732
X6.2953Y-5.6969
X6.3031Y-5.6024
X6.3228Y-5.4882
X6.33Y-7.6713
X6.333Y-7.457
X6.3366Y-6.2795
X6.3465Y-7.8937
X6.3543Y-4.063
X6.3543Y-4.126
X6.3661Y-6.1614
X6.4055Y-6.5591
X6.4055Y-6.9528
X6.4134Y-6.3583
X6.4449Y-3.9803
X6.4449Y-4.685
X6.4764Y-4.1929
X6.4764Y-7.7756
X6.4764Y-7.8268
X6.478Y-7.6443
X6.4803Y-4.0197
X6.5039Y-7.5591
X6.5039Y-7.5906
X6.5197Y-3.9921
X6.5433Y-3.7677
X6.563Y-4.1614
X6.565Y-3.8934
X6.5689Y-4.0
X6.5945Y-3.8583
X6.5972Y-3.9324
X6.5972Y-3.9717
X6.6024Y-4.0623
X6.6614Y-7.5197
X6.689Y-4.1624
X6.689Y-5.7992
X6.7008Y-6.752
X6.7028Y-6.2598
X6.7205Y-5.374
X6.7205Y-6.6535
X6.7205Y-6.9291
X6.7205Y-7.2047
X6.7244Y-7.0472
X6.7323Y-6.752
X6.7389Y-4.1506
X6.7402Y-5.7677
X6.7402Y-5.9035
X6.7402Y-6.378
X6.7402Y-6.8898
X6.7874Y-6.0748
X6.7874Y-6.2559
X6.791Y-3.9813
X6.7913Y-5.8465
X6.7913Y-6.8386
X6.8012Y-6.4567
X6.806Y-6.4151
X6.815Y-6.8937
X6.8189Y-6.5748
X6.8189Y-6.624
X6.8386Y-5.1929
X6.8386Y-6.7126
X6.8583Y-7.4213
X6.862Y-7.3543
X6.8622Y-7.0512
X6.8763Y-6.3448
X6.878Y-4.1732
X6.878Y-5.1378
X6.878Y-5.2953
X6.878Y-6.063
X6.878Y-6.2402
X6.878Y-6.378
X6.8976Y-4.4646
X6.8976Y-7.1614
X6.8976Y-7.4409
X6.9002Y-6.2624
X6.9173Y-5.1378
X6.9173Y-5.2953
X6.937Y-7.1614
X6.9541Y-4.9632
X6.9567Y-5.9646
X6.9567Y-6.0827
X6.9685Y-6.5984
X6.9764Y-4.9409
X6.9764Y-5.2953
X6.9764Y-5.8661
X6.9764Y-6.8904
X6.9764Y-6.9488
X6.981Y-3.8113
X6.988Y-7.2146
X6.9882Y-6.7402
X7.0157Y-5.2953
X7.0709Y-7.3346
X7.0787Y-6.2953
X7.1433Y-4.9307
X7.1535Y-4.8228
X7.1535Y-4.8622
X7.1535Y-5.2559
X7.1667Y-6.4509
X7.1772Y-6.9409
X7.1831Y-6.5354
X7.1831Y-6.6732
X7.185Y-6.8071
X7.1929Y-5.2559
X7.2126Y-3.622
X7.2126Y-3.8583
X7.2126Y-4.0945
X7.248Y-4.2047
X7.252Y-4.7506
X7.252Y-5.9961
X7.2559Y-4.248
X7.2717Y-4.7835
X7.2717Y-4.8228
X7.2913Y-6.2254
X7.311Y-5.8661
X7.3425Y-4.0433
X7.3504Y-5.9646
X7.3701Y-6.3976
X7.3898Y-6.2402
X7.4094Y-6.5945
X7.4409Y-6.4016
X7.4519Y-6.6369
X7.4764Y-5.4803
X7.4764Y-5.6772
X7.4803Y-5.3819
X7.4803Y-5.5787
X7.4803Y-5.9803
X7.4803Y-6.0709
X7.5306Y-6.5582
X7.5472Y-6.3829
X7.5866Y-5.2756
X7.5945Y-6.5236
X7.6063Y-2.8937
X7.6238Y-6.3954
X7.629Y-6.4597
X7.6654Y-5.2953
X7.6693Y-6.8071
X7.6828Y-6.3337
X7.6846Y-6.4563
X7.7047Y-5.2953
X7.724Y-6.4169
X7.7441Y-6.3583
X7.752Y-5.252
X7.7756Y-6.6969
X7.7953Y-3.3346
X7.8622Y-6.2598
X7.8819Y-6.3583
X7.9685Y-5.2756
X7.9724Y-6.6969
X7.9803Y-7.1654
X8.001Y-7.2038
X8.0551Y-3.7992
X8.0551Y-4.4646
X8.0669Y-6.248
X8.0748Y-6.4882
X8.1378Y-7.3622
X8.1772Y-4.8474
X8.185Y-6.0748
X8.2165Y-2.9331
X8.2165Y-6.2598
X8.2362Y-7.2047
X8.2756Y-6.1811
X8.2756Y-6.6772
X8.2756Y-7.185
X8.3937Y-3.8031
X8.3937Y-4.2677
X8.5118Y-7.5
X8.5118Y-7.5315
X8.5709Y-6.1035
X8.6024Y-6.7598
X8.6102Y-5.9035
X8.6142Y-5.5787
X8.622Y-5.9764
X8.6457Y-5.6811
X8.6457Y-5.8031
X8.6496Y-6.2992
X8.6535Y-6.1693
X8.6693Y-6.2402
X8.6693Y-6.5866
X8.6693Y-7.5
X8.6693Y-7.5315
X8.689Y-6.6732
X8.7126Y-6.4409
X8.7283Y-4.1772
X8.7283Y-6.0827
X8.752Y-5.189
X8.7677Y-6.122
X8.7874Y-6.6978
X8.7874Y-7.7165
X8.8071Y-6.6339
X8.8268Y-6.122
X8.8268Y-6.2795
X8.832Y-5.9035
X8.8465Y-6.0039
X8.8583Y-5.1811
X8.8661Y-3.9646
X8.8661Y-6.2992
X8.8661Y-6.4488
X8.9252Y-4.8622
X8.9252Y-4.9724
X8.9252Y-6.0433
X8.9528Y-6.1772
X8.9646Y-6.1024
X8.9646Y-6.2402
X8.998Y-4.872
X9.0118Y-4.4724
X9.0276Y-5.7677
X9.0709Y-6.7874
X9.0748Y-6.252
X9.0823Y-5.7673
X9.122Y-6.2008
X9.2362Y-5.9291
X9.2402Y-4.562
X9.248Y-4.1299
X9.2717Y-6.7756
X9.2795Y-4.6654
X9.3189Y-4.3661
X9.3189Y-5.8858
X9.3189Y-5.9843
X9.3386Y-6.0679
X9.3386Y-6.1024
X9.3583Y-4.7047
X9.3583Y-6.689
X9.3701Y-5.7047
X9.3858Y-4.9331
X9.3976Y-2.8937
X9.3976Y-4.6457
X9.3976Y-5.315
X9.3976Y-6.4567
X9.4173Y-6.0187
X9.437Y-3.1102
X9.437Y-4.5276
X9.4449Y-5.0827
X9.4488Y-6.2402
X9.4488Y-6.8583
X9.4764Y-6.3386
X9.4764Y-6.752
X9.4921Y-6.6654
X9.5197Y-6.1762
X9.5197Y-6.3622
X9.5354Y-7.126
X9.5354Y-7.5197
X9.5433Y-4.9921
X9.5512Y-5.4685
X9.5709Y-4.6299
X9.591Y-4.0413
X9.6142Y-5.3346
X9.626Y-3.9882
X9.6299Y-4.2717
X9.6339Y-5.6181
X9.6417Y-6.3819
X9.6575Y-5.9409
X9.6693Y-6.1024
X9.671Y-4.0513
X9.6732Y-3.9882
X9.6772Y-6.4961
X9.685Y-6.5748
X9.7126Y-6.936
X9.7126Y-6.9685
X9.7356Y-3.9923
X9.7402Y-6.6772
X9.741Y-3.9613
X9.752Y-3.8189
X9.7557Y-6.2926
X9.761Y-4.0413
X9.761Y-4.0728
X9.771Y-3.9513
X9.801Y-4.141
X9.841Y-4.141
X9.8819Y-4.6299
X9.8898Y-6.2992
X9.891Y-4.0413
X9.901Y-3.8413
X9.9094Y-5.1575
X9.921Y-3.6859
X9.921Y-4.1903
X9.9291Y-6.1024
X9.9291Y-6.437
X9.9291Y-6.5157
X9.9685Y-5.5618
X9.9685Y-6.2598
X9.984Y-4.6963
X10.0Y-5.5618
X10.0Y-6.2598
X10.0079Y-6.6732
X10.0276Y-6.2992
X10.0315Y-5.8031
X10.0354Y-6.4882
X10.0374Y-6.3976
X10.0512Y-6.7126
X10.0591Y-4.8307
X10.0591Y-6.7913
X10.062Y-5.2123
X10.0748Y-4.6181
X10.091Y-4.0413
X10.0984Y-4.0945
X10.111Y-3.6912
X10.1174Y-4.8182
X10.1299Y-4.3031
X10.131Y-3.8113
X10.1378Y-5.9921
X10.1457Y-5.8858
X10.1457Y-6.1024
X10.1457Y-6.378
X10.1654Y-5.9252
X10.1772Y-6.189
X10.1969Y-4.6811
X10.1969Y-5.8307
X10.2134Y-4.8248
X10.2195Y-6.2598
X10.2687Y-5.9646
X10.2687Y-6.2598
X10.2756Y-4.4528
X10.2805Y-4.7579
X10.2835Y-6.0039
X10.311Y-5.7402
X10.3504Y-3.9449
X10.3504Y-4.8248
X10.3504Y-4.8858
X10.3516Y-4.7216
X10.3583Y-3.8071
X10.3583Y-4.0433
X10.3819Y-4.8248
X10.3976Y-4.6181
X10.4055Y-4.5866
X10.4055Y-4.6775
X10.417Y-6.1066
X10.4331Y-6.1732
X10.438Y-4.6775
X10.4449Y-4.7323
X10.4449Y-4.9331
X10.4843Y-4.6102
X10.4843Y-5.9134
X10.5551Y-4.7205
X10.5591Y-4.3031
X10.5591Y-6.063
X10.585Y-4.8248
X10.5915Y-4.6529
X10.6142Y-5.4331
X10.6181Y-5.9793
X10.622Y-4.6283
X10.625Y-4.8463
X10.6496Y-4.7441
X10.7087Y-4.0906
X10.7402Y-5.4331
X10.7559Y-6.063
X10.7559Y-6.2205
X10.7953Y-5.8465
X10.7953Y-6.5157
X10.811Y-4.1413
X10.815Y-6.063
X10.835Y-4.6283
X10.8543Y-6.5551
X10.8644Y-4.6529
X10.8858Y-5.4331
X10.903Y-4.8463
X10.9331Y-5.9449
X10.9409Y-4.7087
X10.9449Y-4.9488
X10.9528Y-6.0778
X10.9528Y-7.0276
X10.9724Y-4.2087
X10.975Y-7.0053
X10.9921Y-6.0433
X11.0512Y-5.9252
X11.1457Y-6.0079
X11.2331Y-4.8254
X11.286Y-6.7673
X11.3268Y-5.5512
X11.4055Y-4.3455
X11.4252Y-7.874
X11.4252Y-7.9921
X11.4449Y-4.4094
X11.7087Y-5.3543
X6.2055Y-7.9291
X6.2055Y-7.9823
X6.239Y-7.9291
X6.239Y-7.9823
X6.2724Y-7.9291
X6.2724Y-7.9823
X6.3059Y-7.9291
X6.3059Y-7.9823
X6.3394Y-7.9291
X6.3394Y-7.9823
X6.3728Y-7.9291
X6.3728Y-7.9823
X6.4063Y-7.9291
X6.4063Y-7.9823
X6.4398Y-7.9291
X6.4398Y-7.9823
T3
X9.2992Y-3.2087
X9.2992Y-3.2874
X9.2992Y-3.3661
X6.1299Y-3.248
X6.1299Y-3.3268
X6.1299Y-3.4055
X4.8256Y-5.0347
X4.9043Y-5.0347
X4.9831Y-5.0347
X4.8256Y-5.2316
X4.9043Y-5.2316
X4.9831Y-5.2316
X10.6575Y-3.2087
X10.6575Y-3.2874
X10.6575Y-3.3661
X8.2165Y-3.937
X8.2165Y-4.0157
X8.2165Y-4.0945
X8.0197Y-3.937
X8.0197Y-4.0157
X8.0197Y-4.0945
X10.8543Y-3.2087
X10.8543Y-3.2874
X10.8543Y-3.3661
X4.6287Y-5.7237
X4.7075Y-5.7237
X4.7862Y-5.7237
X8.6102Y-3.937
X8.6102Y-4.0157
X8.6102Y-4.0945
X5.9331Y-3.248
X5.9331Y-3.3268
X5.9331Y-3.4055
X8.4134Y-3.937
X8.4134Y-4.0157
X8.4134Y-4.0945
X7.5079Y-3.248
X7.5079Y-3.3268
X7.5079Y-3.4055
X7.7047Y-3.248
X7.7047Y-3.3268
X7.7047Y-3.4055
X9.0827Y-3.2087
X9.0827Y-3.2874
X9.0827Y-3.3661
X4.6287Y-4.0505
X4.7075Y-4.0505
X4.7862Y-4.0505
T4
X5.6575Y-8.0079
X5.8543Y-8.0079
T5
X5.8331Y-7.5197
X5.8831Y-7.5197
X5.9331Y-7.5197
X5.9831Y-7.5197
T6
X7.5028Y-4.0111
X10.8346Y-4.5276
X4.7323Y-7.6772
X4.7868Y-7.789
X4.8413Y-7.6772
X4.8959Y-7.789
X4.9504Y-7.6772
X5.0049Y-7.789
X5.0594Y-7.6772
X5.114Y-7.789
X5.1685Y-7.6772
X6.1248Y-4.0111
X5.7165Y-5.4134
X5.7165Y-5.5134
X5.7165Y-5.6134
X5.7165Y-5.7134
X5.7165Y-5.8134
X5.7165Y-5.9134
X5.7165Y-6.0134
X5.7165Y-6.1134
X6.0315Y-5.7933
X9.0776Y-3.7158
X5.0028Y-6.1568
X4.7323Y-6.8898
X4.7868Y-7.0016
X4.8413Y-6.8898
X4.8959Y-7.0016
X4.9504Y-6.8898
X5.0049Y-7.0016
X5.0594Y-6.8898
X5.114Y-7.0016
X5.1685Y-6.8898
X10.6378Y-4.5276
X5.0028Y-4.0505
X6.7992Y-2.615
X6.7992Y-2.724
X6.7992Y-2.8331
X6.7992Y-2.9421
X6.7992Y-3.0512
X6.911Y-2.6695
X6.911Y-2.7785
X6.911Y-2.8876
X6.911Y-2.9967
X10.8492Y-3.7158
X5.928Y-3.7158
X9.2744Y-4.0111
X10.6524Y-4.0111
X10.6524Y-3.7158
X11.1642Y-4.5276
X11.2642Y-4.5276
X11.3642Y-4.5276
X11.4642Y-4.5276
X6.1248Y-3.7158
X8.4055Y-5.178
X8.4055Y-5.278
X8.4055Y-5.378
X8.4055Y-5.478
X8.4055Y-5.578
X8.4055Y-5.678
X8.4055Y-5.778
X8.4055Y-5.878
X8.4055Y-5.978
X8.4055Y-6.078
X8.4055Y-6.178
X8.4055Y-6.278
X8.4055Y-6.378
X8.4055Y-6.478
X8.4055Y-6.578
X8.4055Y-6.678
X8.4055Y-6.778
X8.4055Y-6.878
X8.4055Y-6.978
X8.4055Y-7.078
X8.4055Y-7.178
X8.4055Y-7.278
X8.4055Y-7.378
X8.5055Y-5.178
X8.5055Y-5.278
X8.5055Y-5.378
X8.5055Y-5.478
X8.5055Y-5.578
X8.5055Y-5.678
X8.5055Y-5.778
X8.5055Y-5.878
X8.5055Y-5.978
X8.5055Y-6.078
X8.5055Y-6.178
X8.5055Y-6.278
X8.5055Y-6.378
X8.5055Y-6.478
X8.5055Y-6.578
X8.5055Y-6.678
X8.5055Y-6.778
X8.5055Y-6.878
X8.5055Y-6.978
X8.5055Y-7.078
X8.5055Y-7.178
X8.5055Y-7.278
X8.5055Y-7.378
X9.6177Y-4.5276
X9.7177Y-4.5276
X9.8177Y-4.5276
X9.9177Y-4.5276
X10.0177Y-4.5276
X10.1177Y-4.5276
X10.2177Y-4.5276
X10.3177Y-4.5276
X6.0315Y-5.6102
X6.0315Y-5.9764
X5.1996Y-4.0505
X9.0669Y-4.9252
X9.0669Y-5.0252
X9.0669Y-5.1252
X9.0669Y-5.2252
X9.0669Y-5.3252
X11.7457Y-6.3402
X11.7457Y-6.4402
X11.7457Y-6.5402
X11.7457Y-6.6402
X11.7457Y-6.7402
X11.7457Y-6.8402
X11.7457Y-6.9402
X11.7457Y-7.0402
X8.374Y-2.615
X8.374Y-2.724
X8.374Y-2.8331
X8.374Y-2.9421
X8.374Y-3.0512
X8.4858Y-2.6695
X8.4858Y-2.7785
X8.4858Y-2.8876
X8.4858Y-2.9967
X11.7457Y-7.2004
X11.7457Y-7.3004
X11.7457Y-7.4004
X11.7457Y-7.5004
X11.7457Y-7.6004
X11.7457Y-7.7004
X11.7457Y-7.8004
X11.7457Y-7.9004
X11.7457Y-8.0004
X11.7457Y-8.1004
X10.0451Y-5.0398
X10.0451Y-5.1398
X10.1451Y-5.0398
X10.1451Y-5.1398
X10.2451Y-5.0398
X10.2451Y-5.1398
X10.3451Y-5.0398
X10.3451Y-5.1398
X10.4451Y-5.0398
X10.4451Y-5.1398
X10.5451Y-5.0398
X10.5451Y-5.1398
X10.6451Y-5.0398
X10.6451Y-5.1398
X10.7451Y-5.0398
X10.7451Y-5.1398
X10.8451Y-5.0398
X10.8451Y-5.1398
X10.9451Y-5.0398
X10.9451Y-5.1398
X11.0451Y-5.0398
X11.0451Y-5.1398
X11.1451Y-5.0398
X11.1451Y-5.1398
X11.2451Y-5.0398
X11.2451Y-5.1398
X11.3451Y-5.0398
X11.3451Y-5.1398
X11.4451Y-5.0398
X11.4451Y-5.1398
X11.5451Y-5.0398
X11.5451Y-5.1398
X11.6451Y-5.0398
X11.6451Y-5.1398
X11.7451Y-5.0398
X11.7451Y-5.1398
X11.5236Y-2.615
X11.5236Y-2.724
X11.5236Y-2.8331
X11.5236Y-2.9421
X11.5236Y-3.0512
X11.6354Y-2.6695
X11.6354Y-2.7785
X11.6354Y-2.8876
X11.6354Y-2.9967
X7.6996Y-4.0111
X5.0028Y-6.3143
X5.0028Y-4.641
X5.928Y-4.0111
X9.8457Y-7.0402
X9.8457Y-7.1402
X9.8457Y-7.2402
X9.8457Y-7.3402
X9.8457Y-7.4402
X9.8457Y-7.5402
X9.8457Y-7.6402
X9.8457Y-7.7402
X11.3661Y-4.2323
X11.1642Y-4.2323
X7.6996Y-3.7158
X9.2744Y-3.7158
X7.5028Y-3.7158
X9.8457Y-5.2402
X9.8457Y-5.3402
X9.8457Y-5.4402
X9.8457Y-5.5402
X9.8457Y-5.6402
X9.8457Y-5.7402
X9.8457Y-5.8402
X9.8457Y-5.9402
X11.7457Y-5.4402
X11.7457Y-5.5402
X11.7457Y-5.6402
X11.7457Y-5.7402
X11.7457Y-5.8402
X11.7457Y-5.9402
X11.7457Y-6.0402
X11.7457Y-6.1402
X4.7323Y-2.4606
X4.7868Y-2.5724
X4.8413Y-2.4606
X4.8959Y-2.5724
X4.9504Y-2.4606
X5.0049Y-2.5724
X5.0594Y-2.4606
X5.114Y-2.5724
X5.1685Y-2.4606
X5.0028Y-4.4836
X6.5039Y-5.1819
X6.5039Y-5.2819
X6.5039Y-5.3819
X6.5039Y-5.4819
X6.5039Y-5.5819
X6.5039Y-5.6819
X6.5039Y-5.7819
X6.5039Y-5.8819
X6.5039Y-5.9819
X6.5039Y-6.0819
X6.5039Y-6.1819
X6.5039Y-6.2819
X6.5039Y-6.3819
X6.5039Y-6.4819
X6.5039Y-6.5819
X6.5039Y-6.6819
X6.5039Y-6.7819
X6.5039Y-6.8819
X6.5039Y-6.9819
X6.5039Y-7.0819
X6.5039Y-7.1819
X6.5039Y-7.2819
X6.5039Y-7.3819
X6.6039Y-5.1819
X6.6039Y-5.2819
X6.6039Y-5.3819
X6.6039Y-5.4819
X6.6039Y-5.5819
X6.6039Y-5.6819
X6.6039Y-5.7819
X6.6039Y-5.8819
X6.6039Y-5.9819
X6.6039Y-6.0819
X6.6039Y-6.1819
X6.6039Y-6.2819
X6.6039Y-6.3819
X6.6039Y-6.4819
X6.6039Y-6.5819
X6.6039Y-6.6819
X6.6039Y-6.7819
X6.6039Y-6.8819
X6.6039Y-6.9819
X6.6039Y-7.0819
X6.6039Y-7.1819
X6.6039Y-7.2819
X6.6039Y-7.3819
X11.563Y-4.2323
X9.9488Y-2.615
X9.9488Y-2.724
X9.9488Y-2.8331
X9.9488Y-2.9421
X9.9488Y-3.0512
X10.0606Y-2.6695
X10.0606Y-2.7785
X10.0606Y-2.8876
X10.0606Y-2.9967
X9.0776Y-4.0111
X10.8492Y-4.0111
X9.8457Y-6.1402
X9.8457Y-6.2402
X9.8457Y-6.3402
X9.8457Y-6.4402
X9.8457Y-6.5402
X9.8457Y-6.6402
X9.8457Y-6.7402
X9.8457Y-6.8402
X5.0028Y-5.7237
X5.1996Y-5.7237
X4.7323Y-3.248
X4.7868Y-3.3598
X4.8413Y-3.248
X4.8959Y-3.3598
X4.9504Y-3.248
X5.0049Y-3.3598
X5.0594Y-3.248
X5.114Y-3.3598
X5.1685Y-3.248
X5.7165Y-4.626
X5.7165Y-4.726
X5.7165Y-4.826
X5.7165Y-4.926
T7
X9.063Y-2.5591
X9.263Y-2.5591
T8
X4.4583Y-6.9457
X5.4425Y-6.9457
X6.8551Y-2.3409
X6.8551Y-3.3252
X8.4299Y-2.3409
X8.4299Y-3.3252
X11.5795Y-2.3409
X11.5795Y-3.3252
X4.3583Y-3.7205
X7.6654Y-2.3031
X4.4583Y-2.5165
X5.4425Y-2.5165
X8.2953Y-7.9331
X10.0047Y-2.3409
X10.0047Y-3.3252
X11.4843Y-6.5157
X4.3583Y-6.5157
X4.4583Y-3.3039
X5.4425Y-3.3039
X11.7992Y-3.7205
X4.4583Y-7.7331
X5.4425Y-7.7331
T2
G00X6.1524Y-7.9382
M15
G01X6.1524Y-7.9972
M16
G05
G00X6.1524Y-8.085
M15
G01X6.1524Y-8.1165
M16
G05
G00X6.4929Y-7.9382
M15
G01X6.4929Y-7.9972
M16
G05
G00X6.4929Y-8.085
M15
G01X6.4929Y-8.1165
M16
G05
G00X5.6181Y-8.128
M15
G01X5.6181Y-8.1004
M16
G05
G00X5.8937Y-8.1004
M15
G01X5.8937Y-8.128
M16
G05
T0
M30
