G04 #@! TF.GenerationSoftware,KiCad,Pcbnew,5.1.5-52549c5~84~ubuntu18.04.1*
G04 #@! TF.CreationDate,2020-02-21T15:33:22+00:00*
G04 #@! TF.ProjectId,VCU_tester,5643555f-7465-4737-9465-722e6b696361,-*
G04 #@! TF.SameCoordinates,Original*
G04 #@! TF.FileFunction,Profile,NP*
%FSLAX46Y46*%
G04 Gerber Fmt 4.6, Leading zero omitted, Abs format (unit mm)*
G04 Created by KiCad (PCBNEW 5.1.5-52549c5~84~ubuntu18.04.1) date 2020-02-21 15:33:22*
%MOMM*%
%LPD*%
G04 APERTURE LIST*
%ADD10C,0.002540*%
G04 APERTURE END LIST*
D10*
X197500000Y20000000D02*
X197500000Y-129000000D01*
X148500000Y-130000000D02*
X149000000Y-130000000D01*
X158000000Y-134000000D02*
X153000000Y-134000000D01*
X153000000Y-134000000D02*
G75*
G02X151000000Y-132000000I0J2000000D01*
G01*
X149000000Y-130000000D02*
G75*
G02X151000000Y-132000000I0J-2000000D01*
G01*
X192500000Y-134000000D02*
X158000000Y-134000000D01*
X122500000Y-130000000D02*
X100000000Y-130000000D01*
X100000000Y-130000000D02*
G75*
G02X95000000Y-125000000I0J5000000D01*
G01*
X95000000Y-111000000D02*
X95000000Y-125000000D01*
X78000000Y-109000000D02*
X93000000Y-109000000D01*
X76000000Y-115000000D02*
X76000000Y-111000000D01*
X93000000Y-109000000D02*
G75*
G02X95000000Y-111000000I0J-2000000D01*
G01*
X76000000Y-111000000D02*
G75*
G02X78000000Y-109000000I2000000J0D01*
G01*
X74000000Y-117000000D02*
X70000000Y-117000000D01*
X76000000Y-115000000D02*
G75*
G02X74000000Y-117000000I-2000000J0D01*
G01*
X58000000Y-130000000D02*
X52500000Y-130000000D01*
X61000000Y-117000000D02*
X70000000Y-117000000D01*
X60000000Y-128000000D02*
X60000000Y-118000000D01*
X60000000Y-118000000D02*
G75*
G02X61000000Y-117000000I1000000J0D01*
G01*
X60000000Y-128000000D02*
G75*
G02X58000000Y-130000000I-2000000J0D01*
G01*
X148500000Y-130000000D02*
X122500000Y-130000000D01*
X-2500000Y17500000D02*
X-2500000Y20000000D01*
X192500000Y25000000D02*
X2500000Y25000000D01*
X192500000Y25000000D02*
G75*
G02X197500000Y20000000I0J-5000000D01*
G01*
X197500000Y-129000000D02*
G75*
G02X192500000Y-134000000I-5000000J0D01*
G01*
X2500000Y-130000000D02*
X52500000Y-130000000D01*
X2500000Y-130000000D02*
G75*
G02X-2500000Y-125000000I0J5000000D01*
G01*
X-2500000Y17500000D02*
X-2500000Y-125000000D01*
X-2500000Y20000000D02*
G75*
G02X2500000Y25000000I5000000J0D01*
G01*
M02*
