G04 #@! TF.GenerationSoftware,KiCad,Pcbnew,5.1.5-52549c5~84~ubuntu18.04.1*
G04 #@! TF.CreationDate,2020-02-21T15:33:22+00:00*
G04 #@! TF.ProjectId,VCU_tester,5643555f-7465-4737-9465-722e6b696361,-*
G04 #@! TF.SameCoordinates,Original*
G04 #@! TF.FileFunction,Copper,L2,Bot*
G04 #@! TF.FilePolarity,Positive*
%FSLAX46Y46*%
G04 Gerber Fmt 4.6, Leading zero omitted, Abs format (unit mm)*
G04 Created by KiCad (PCBNEW 5.1.5-52549c5~84~ubuntu18.04.1) date 2020-02-21 15:33:22*
%MOMM*%
%LPD*%
G04 APERTURE LIST*
%ADD10R,1.350000X1.350000*%
%ADD11O,1.350000X1.350000*%
%ADD12O,1.700000X1.700000*%
%ADD13R,1.700000X1.700000*%
%ADD14C,5.700000*%
%ADD15O,0.900000X1.700000*%
%ADD16O,0.900000X2.400000*%
%ADD17C,0.700000*%
%ADD18R,1.600000X1.600000*%
%ADD19C,1.600000*%
%ADD20C,4.000000*%
%ADD21O,1.200000X1.900000*%
%ADD22C,1.450000*%
%ADD23C,3.000000*%
%ADD24R,3.000000X3.000000*%
%ADD25O,1.070000X1.800000*%
%ADD26R,1.070000X1.800000*%
%ADD27C,0.600000*%
%ADD28C,0.500000*%
%ADD29C,0.250000*%
G04 APERTURE END LIST*
D10*
X106000000Y-26500000D03*
D11*
X106000000Y-24500000D03*
X106000000Y-22500000D03*
X168000000Y-8000000D03*
X168000000Y-6000000D03*
D10*
X168000000Y-4000000D03*
D11*
X163000000Y-8000000D03*
X163000000Y-6000000D03*
D10*
X163000000Y-4000000D03*
D11*
X128500000Y-8000000D03*
X128500000Y-6000000D03*
D10*
X128500000Y-4000000D03*
D11*
X123000000Y-8000000D03*
X123000000Y-6000000D03*
D10*
X123000000Y-4000000D03*
D11*
X48000000Y-9000000D03*
X48000000Y-7000000D03*
D10*
X48000000Y-5000000D03*
D11*
X43000000Y-9000000D03*
X43000000Y-7000000D03*
D10*
X43000000Y-5000000D03*
D11*
X88000000Y-9000000D03*
X88000000Y-7000000D03*
D10*
X88000000Y-5000000D03*
D11*
X83000000Y-9000000D03*
X83000000Y-7000000D03*
D10*
X83000000Y-5000000D03*
D12*
X122600000Y-57760000D03*
X122600000Y-55220000D03*
X122600000Y-52680000D03*
X122600000Y-50140000D03*
D13*
X122600000Y-47600000D03*
D14*
X103000000Y-124000000D03*
X87000000Y19000000D03*
X184000000Y-88000000D03*
X192000000Y-17000000D03*
X3000000Y-88000000D03*
X3000000Y-17000000D03*
D15*
X57220000Y-128260000D03*
X48570000Y-128260000D03*
D16*
X57220000Y-124880000D03*
X48570000Y-124880000D03*
D17*
X53320000Y-125250000D03*
X55870000Y-125250000D03*
X55020000Y-125250000D03*
X54170000Y-125250000D03*
X49920000Y-125250000D03*
X51620000Y-125250000D03*
X52470000Y-125250000D03*
X50770000Y-125250000D03*
X55870000Y-123900000D03*
X55020000Y-123900000D03*
X54170000Y-123900000D03*
X53320000Y-123900000D03*
X52470000Y-123900000D03*
X51620000Y-123900000D03*
X50770000Y-123900000D03*
X49920000Y-123900000D03*
D13*
X45500000Y-74300000D03*
X45500000Y-69650000D03*
X45500000Y-65000000D03*
X181000000Y-30000000D03*
D12*
X147445000Y-50510000D03*
X147445000Y-53050000D03*
X149985000Y-50510000D03*
X149985000Y-53050000D03*
X152525000Y-50510000D03*
X152525000Y-53050000D03*
X155065000Y-50510000D03*
X155065000Y-53050000D03*
X157605000Y-50510000D03*
X157605000Y-53050000D03*
X160145000Y-50510000D03*
X160145000Y-53050000D03*
X162685000Y-50510000D03*
X162685000Y-53050000D03*
X165225000Y-50510000D03*
X165225000Y-53050000D03*
X167765000Y-50510000D03*
X167765000Y-53050000D03*
X170305000Y-50510000D03*
X170305000Y-53050000D03*
X172845000Y-50510000D03*
X172845000Y-53050000D03*
X175385000Y-50510000D03*
X175385000Y-53050000D03*
X177925000Y-50510000D03*
X177925000Y-53050000D03*
X180465000Y-50510000D03*
X180465000Y-53050000D03*
X183005000Y-50510000D03*
X183005000Y-53050000D03*
X185545000Y-50510000D03*
X185545000Y-53050000D03*
X188085000Y-50510000D03*
X188085000Y-53050000D03*
X190625000Y-50510000D03*
D13*
X190625000Y-53050000D03*
D12*
X142380000Y-101320000D03*
X142380000Y-103860000D03*
X142380000Y-106400000D03*
X142380000Y-108940000D03*
X142380000Y-111480000D03*
X142380000Y-114020000D03*
X142380000Y-116560000D03*
D13*
X142380000Y-119100000D03*
D12*
X190640000Y-128250000D03*
X190640000Y-125710000D03*
X190640000Y-123170000D03*
X190640000Y-120630000D03*
X190640000Y-118090000D03*
X190640000Y-115550000D03*
X190640000Y-113010000D03*
X190640000Y-110470000D03*
X190640000Y-107930000D03*
D13*
X190640000Y-105390000D03*
D12*
X60040000Y-54120000D03*
X57500000Y-54120000D03*
X60040000Y-56660000D03*
X57500000Y-56660000D03*
X60040000Y-59200000D03*
X57500000Y-59200000D03*
X60040000Y-61740000D03*
X57500000Y-61740000D03*
X60040000Y-64280000D03*
X57500000Y-64280000D03*
X60040000Y-66820000D03*
X57500000Y-66820000D03*
X60040000Y-69360000D03*
X57500000Y-69360000D03*
X60040000Y-71900000D03*
X57500000Y-71900000D03*
X60040000Y-74440000D03*
X57500000Y-74440000D03*
X60040000Y-76980000D03*
X57500000Y-76980000D03*
X60040000Y-79520000D03*
X57500000Y-79520000D03*
X60040000Y-82060000D03*
X57500000Y-82060000D03*
X60040000Y-84600000D03*
X57500000Y-84600000D03*
X60040000Y-87140000D03*
X57500000Y-87140000D03*
X60040000Y-89680000D03*
X57500000Y-89680000D03*
X60040000Y-92220000D03*
X57500000Y-92220000D03*
X60040000Y-94760000D03*
X57500000Y-94760000D03*
X60040000Y-97300000D03*
X57500000Y-97300000D03*
X60040000Y-99840000D03*
X57500000Y-99840000D03*
X60040000Y-102380000D03*
X57500000Y-102380000D03*
X60040000Y-104920000D03*
X57500000Y-104920000D03*
X60040000Y-107460000D03*
X57500000Y-107460000D03*
X60040000Y-110000000D03*
D13*
X57500000Y-110000000D03*
D12*
X108340000Y-54020000D03*
X105800000Y-54020000D03*
X108340000Y-56560000D03*
X105800000Y-56560000D03*
X108340000Y-59100000D03*
X105800000Y-59100000D03*
X108340000Y-61640000D03*
X105800000Y-61640000D03*
X108340000Y-64180000D03*
X105800000Y-64180000D03*
X108340000Y-66720000D03*
X105800000Y-66720000D03*
X108340000Y-69260000D03*
X105800000Y-69260000D03*
X108340000Y-71800000D03*
X105800000Y-71800000D03*
X108340000Y-74340000D03*
X105800000Y-74340000D03*
X108340000Y-76880000D03*
X105800000Y-76880000D03*
X108340000Y-79420000D03*
X105800000Y-79420000D03*
X108340000Y-81960000D03*
X105800000Y-81960000D03*
X108340000Y-84500000D03*
X105800000Y-84500000D03*
X108340000Y-87040000D03*
X105800000Y-87040000D03*
X108340000Y-89580000D03*
X105800000Y-89580000D03*
X108340000Y-92120000D03*
X105800000Y-92120000D03*
X108340000Y-94660000D03*
X105800000Y-94660000D03*
X108340000Y-97200000D03*
X105800000Y-97200000D03*
X108340000Y-99740000D03*
X105800000Y-99740000D03*
X108340000Y-102280000D03*
X105800000Y-102280000D03*
X108340000Y-104820000D03*
X105800000Y-104820000D03*
X108340000Y-107360000D03*
X105800000Y-107360000D03*
X108340000Y-109900000D03*
D13*
X105800000Y-109900000D03*
D18*
X12500000Y-5000000D03*
D19*
X15270000Y-5000000D03*
X18040000Y-5000000D03*
X20810000Y-5000000D03*
X23580000Y-5000000D03*
X13885000Y-7840000D03*
X16655000Y-7840000D03*
X19425000Y-7840000D03*
X22195000Y-7840000D03*
D20*
X5540000Y-6420000D03*
X30540000Y-6420000D03*
D18*
X12500000Y15000000D03*
D19*
X15270000Y15000000D03*
X18040000Y15000000D03*
X20810000Y15000000D03*
X23580000Y15000000D03*
X13885000Y12160000D03*
X16655000Y12160000D03*
X19425000Y12160000D03*
X22195000Y12160000D03*
D20*
X5540000Y13580000D03*
X30540000Y13580000D03*
D18*
X12500000Y-97500000D03*
D19*
X15270000Y-97500000D03*
X18040000Y-97500000D03*
X20810000Y-97500000D03*
X23580000Y-97500000D03*
X13885000Y-100340000D03*
X16655000Y-100340000D03*
X19425000Y-100340000D03*
X22195000Y-100340000D03*
D20*
X5540000Y-98920000D03*
X30540000Y-98920000D03*
D18*
X185000000Y0D03*
D19*
X185000000Y2770000D03*
X185000000Y5540000D03*
X185000000Y8310000D03*
X185000000Y11080000D03*
X187840000Y1385000D03*
X187840000Y4155000D03*
X187840000Y6925000D03*
X187840000Y9695000D03*
D20*
X186420000Y-6960000D03*
X186420000Y18040000D03*
D18*
X145000000Y0D03*
D19*
X145000000Y2770000D03*
X145000000Y5540000D03*
X145000000Y8310000D03*
X145000000Y11080000D03*
X147840000Y1385000D03*
X147840000Y4155000D03*
X147840000Y6925000D03*
X147840000Y9695000D03*
D20*
X146420000Y-6960000D03*
X146420000Y18040000D03*
D18*
X65000000Y0D03*
D19*
X65000000Y2770000D03*
X65000000Y5540000D03*
X65000000Y8310000D03*
X65000000Y11080000D03*
X67840000Y1385000D03*
X67840000Y4155000D03*
X67840000Y6925000D03*
X67840000Y9695000D03*
D20*
X66420000Y-6960000D03*
X66420000Y18040000D03*
D18*
X105000000Y0D03*
D19*
X105000000Y2770000D03*
X105000000Y5540000D03*
X105000000Y8310000D03*
X105000000Y11080000D03*
X107840000Y1385000D03*
X107840000Y4155000D03*
X107840000Y6925000D03*
X107840000Y9695000D03*
D20*
X106420000Y-6960000D03*
X106420000Y18040000D03*
D18*
X12500000Y-117500000D03*
D19*
X15270000Y-117500000D03*
X18040000Y-117500000D03*
X20810000Y-117500000D03*
X23580000Y-117500000D03*
X13885000Y-120340000D03*
X16655000Y-120340000D03*
X19425000Y-120340000D03*
X22195000Y-120340000D03*
D20*
X5540000Y-118920000D03*
X30540000Y-118920000D03*
D10*
X111000000Y-26500000D03*
D11*
X111000000Y-24500000D03*
X111000000Y-22500000D03*
D10*
X96000000Y-26500000D03*
D11*
X96000000Y-24500000D03*
X96000000Y-22500000D03*
D12*
X190640000Y-78460000D03*
X190640000Y-75920000D03*
X190640000Y-73380000D03*
X190640000Y-70840000D03*
X190640000Y-68300000D03*
X190640000Y-65760000D03*
X190640000Y-63220000D03*
D13*
X190640000Y-60680000D03*
D12*
X142380000Y-55600000D03*
X142380000Y-58140000D03*
X142380000Y-60680000D03*
X142380000Y-63220000D03*
X142380000Y-65760000D03*
X142380000Y-68300000D03*
X142380000Y-70840000D03*
D13*
X142380000Y-73380000D03*
D12*
X190640000Y-101320000D03*
X190640000Y-98780000D03*
X190640000Y-96240000D03*
X190640000Y-93700000D03*
X190640000Y-91160000D03*
X190640000Y-88620000D03*
X190640000Y-86080000D03*
D13*
X190640000Y-83540000D03*
D21*
X42000000Y-128600000D03*
X35000000Y-128600000D03*
D22*
X41000000Y-125900000D03*
X36000000Y-125900000D03*
D12*
X37500000Y-77780000D03*
X37500000Y-75240000D03*
X37500000Y-72700000D03*
X37500000Y-70160000D03*
X37500000Y-67620000D03*
X37500000Y-65080000D03*
X37500000Y-62540000D03*
D13*
X37500000Y-60000000D03*
D12*
X136590100Y-37500000D03*
X139130100Y-37500000D03*
X141670100Y-37500000D03*
X144210100Y-37500000D03*
X146750100Y-37500000D03*
X149290100Y-37500000D03*
X151830100Y-37500000D03*
D13*
X154370100Y-37500000D03*
X19370100Y-36382400D03*
X19370100Y-40382400D03*
X19370100Y-78882400D03*
X19370100Y-82882400D03*
X24370100Y-25382400D03*
X19370100Y-25382400D03*
X24370100Y-67882400D03*
X19370100Y-67882400D03*
X162500000Y-37500000D03*
X167500000Y-37500000D03*
X127870100Y-16882400D03*
X167870100Y-16882400D03*
X122870100Y-16882400D03*
X162870100Y-16882400D03*
X127870100Y-24382400D03*
X167870100Y-24382400D03*
X122870100Y-24382400D03*
X162870100Y-24382400D03*
X87870100Y-16882400D03*
X47870100Y-16882400D03*
X82870100Y-16882400D03*
X42870100Y-16882400D03*
X47870100Y-24382400D03*
X87870100Y-24382400D03*
X42870100Y-24382400D03*
X82870100Y-24382400D03*
X186000000Y-30000000D03*
X175870100Y-30000000D03*
D11*
X101000000Y-22500000D03*
X101000000Y-24500000D03*
D10*
X101000000Y-26500000D03*
X18870100Y-55382400D03*
D11*
X16870100Y-55382400D03*
X14870100Y-55382400D03*
D10*
X18870100Y-50382400D03*
D11*
X16870100Y-50382400D03*
X14870100Y-50382400D03*
D10*
X13870100Y-25382400D03*
D11*
X11870100Y-25382400D03*
X9870100Y-25382400D03*
D10*
X13870100Y-67882400D03*
D11*
X11870100Y-67882400D03*
X9870100Y-67882400D03*
D12*
X142380000Y-78460000D03*
X142380000Y-81000000D03*
X142380000Y-83540000D03*
X142380000Y-86080000D03*
X142380000Y-88620000D03*
X142380000Y-91160000D03*
X142380000Y-93700000D03*
D13*
X142380000Y-96240000D03*
D12*
X183490100Y-37500000D03*
X180950100Y-37500000D03*
X178410100Y-37500000D03*
D13*
X175870100Y-37500000D03*
D23*
X122500000Y12500000D03*
D24*
X127580000Y12500000D03*
D12*
X37500000Y-47620000D03*
X37500000Y-45080000D03*
X37500000Y-42540000D03*
D13*
X37500000Y-40000000D03*
D25*
X44270000Y-113500000D03*
X43000000Y-113500000D03*
X41730000Y-113500000D03*
D26*
X40460000Y-113500000D03*
D27*
X18500000Y-17500000D03*
X182500000Y-122500000D03*
X115500000Y-118500000D03*
X40500000Y-27000000D03*
X38500000Y-27500000D03*
X78000000Y-71500000D03*
X77500000Y-80625000D03*
X99000000Y-109500000D03*
X61500000Y-113500000D03*
X69500000Y-57000000D03*
X69500000Y-71500000D03*
X63000000Y-105500000D03*
X56000000Y-41500000D03*
X49000000Y-120000000D03*
X119000000Y-46000000D03*
X140230000Y-25148000D03*
X135912000Y-25148000D03*
X143532000Y-25148000D03*
X144294000Y-28932430D03*
X17500000Y-89600000D03*
X14600000Y-86700000D03*
X10000000Y-28250000D03*
X9500000Y-35500000D03*
X69500000Y-97517390D03*
X53158419Y-111908419D03*
X51283419Y-113783419D03*
X85500000Y4000000D03*
X75500000Y-14500000D03*
X75500000Y-20500000D03*
X75500000Y-26500000D03*
X45500000Y-86500000D03*
X51500000Y-105500000D03*
X14500000Y-79507400D03*
X28808058Y-84691942D03*
X8546615Y-66950030D03*
X14000000Y-42500000D03*
X15500000Y-38500000D03*
X13500000Y-35500000D03*
X60000000Y-25682400D03*
X69500000Y-99000000D03*
X24620100Y-73132400D03*
X182500000Y-125500000D03*
X24500000Y-30000000D03*
X28000000Y-33500000D03*
X178965000Y-94388400D03*
X116633059Y-72450001D03*
X111000000Y-72450001D03*
X110000000Y-77530001D03*
X114000000Y-77000000D03*
X87000000Y-57000000D03*
X87443353Y-83375000D03*
X85943353Y-84943353D03*
X87489853Y-86489853D03*
X51500000Y-112000000D03*
X131000000Y4000000D03*
X115500000Y-92625000D03*
X116000000Y-91000000D03*
X117500000Y-82500000D03*
X136500000Y-58000000D03*
X130000000Y-42000000D03*
X132000000Y-1500000D03*
X122989853Y-68989853D03*
X129500000Y-77500000D03*
X120000000Y-77500000D03*
X156000000Y-45049991D03*
X156600000Y-41307800D03*
X156400000Y-39800000D03*
X151720349Y-45049990D03*
X153425000Y-43349981D03*
X168254596Y-40682800D03*
X161323284Y-40682800D03*
X146500000Y-92000000D03*
X167509600Y-40057800D03*
X162099400Y-40057800D03*
X147875400Y-54891400D03*
X145894200Y-41785000D03*
X120000000Y-81000000D03*
X113000000Y-92000000D03*
X155200000Y-46600000D03*
X155200000Y-45049990D03*
X155229433Y-42429433D03*
X88000000Y-57000000D03*
X88489853Y-85489853D03*
X100000000Y-45625000D03*
X92000000Y-81500000D03*
X101000000Y-81500000D03*
X43500000Y-87500000D03*
X33500000Y-73000000D03*
X52000000Y-92000000D03*
X43500000Y-86699997D03*
X162175600Y-45595000D03*
X169236800Y-45595000D03*
X77000000Y-45000000D03*
X67000000Y-81000000D03*
X73739853Y-47739853D03*
X68000000Y-53000000D03*
X68000000Y-57000000D03*
X177619874Y-45064765D03*
X161159600Y-45049991D03*
X157425800Y-41307800D03*
X112500000Y-81000000D03*
X140095776Y-82332170D03*
X143500000Y-82500000D03*
X151875000Y-81500000D03*
X165500000Y-80500000D03*
X170500000Y-76875000D03*
X147000000Y-82500000D03*
X53250000Y-82000000D03*
X102500000Y-79500000D03*
X150000000Y-84500000D03*
X162000000Y-74375000D03*
X160500000Y-76500000D03*
X171500000Y-76000000D03*
X156893058Y-77606942D03*
X147250000Y-85000000D03*
X153125000Y-81500000D03*
X166500000Y-71000000D03*
X54000000Y-79000000D03*
X70500000Y-57000000D03*
X69000000Y-74000000D03*
X134500000Y-113500000D03*
X134500000Y-103500000D03*
X86077237Y-86577237D03*
X84000000Y-84625000D03*
X80000000Y-81000000D03*
X79000000Y-74000000D03*
X85000000Y-56500000D03*
X89200000Y-55900000D03*
X69618000Y-19306000D03*
X64792000Y-23624000D03*
X149628000Y-19306000D03*
X148612000Y-25148000D03*
X7870100Y-74632400D03*
X7120100Y-75632400D03*
X6950001Y-73549999D03*
X6500000Y-32500000D03*
X11300000Y-18900000D03*
X7620100Y-33382400D03*
X7370100Y-30882400D03*
X6500000Y-34500000D03*
X137944000Y-25402000D03*
X140230000Y-25948003D03*
X80500000Y-90000000D03*
X81577237Y-91077237D03*
X166900000Y-27688000D03*
X69795800Y-105750000D03*
X66595400Y-109298200D03*
X56841800Y-116664200D03*
X53082600Y-117350000D03*
X22424800Y-88800400D03*
X11121800Y-79605600D03*
X63000000Y-59000000D03*
X124000000Y-80000000D03*
X133000000Y-83500000D03*
X131000000Y-86500000D03*
X16120100Y-75632400D03*
X17370100Y-70882400D03*
X139000000Y-99500000D03*
X112500000Y-113800003D03*
X108500000Y-113800003D03*
X101500000Y-105500000D03*
X95524441Y-105475559D03*
X67500000Y-111500000D03*
X57500000Y-115300003D03*
X22000000Y-77000000D03*
X19000000Y-77000000D03*
X146300003Y-63770001D03*
X146300003Y-81500000D03*
X145500000Y-63770001D03*
X145500000Y-81500000D03*
X139000000Y-98674999D03*
X112500000Y-113000000D03*
X108500000Y-113000000D03*
X102500000Y-105000000D03*
X95000000Y-104500000D03*
X66500000Y-111000000D03*
X57500000Y-114500000D03*
X21425100Y-71927400D03*
X115000000Y-78000000D03*
X129000000Y-72000000D03*
X150000000Y-72000000D03*
X117000000Y-75000000D03*
X129000000Y-74500000D03*
X153125000Y-74000000D03*
X132000000Y-37500000D03*
X127000000Y-38375000D03*
X76500000Y-43165000D03*
X74000000Y-45000000D03*
X63500000Y-69000000D03*
X63500000Y-72450001D03*
X63000000Y-91500000D03*
X63500000Y-84500000D03*
X162800000Y-43000000D03*
X77000000Y-44000000D03*
X74000000Y-46000000D03*
X67000000Y-53000000D03*
X67000000Y-57000000D03*
X67000000Y-76500000D03*
X69000000Y-77000000D03*
X67565687Y-81565687D03*
X147800000Y-45200000D03*
X149282352Y-44882352D03*
X182000000Y-32875000D03*
X142262000Y-27682430D03*
X143786000Y-20068000D03*
X183000000Y-34500000D03*
X47000000Y-85000000D03*
X38500000Y-84000000D03*
X30000000Y-74500001D03*
X30000000Y-33500000D03*
X16000000Y-33250000D03*
X47000000Y-84000000D03*
X38500000Y-83000000D03*
X31000000Y-74500001D03*
X30625001Y-34125001D03*
X65173490Y-85442626D03*
X66958059Y-83658056D03*
X74000000Y-56000000D03*
X68934313Y-48565687D03*
X63468107Y-27925830D03*
X67000000Y-28500000D03*
X69500000Y-48000000D03*
X75000000Y-56000000D03*
X67000000Y-84500000D03*
X65049989Y-86500000D03*
X59150000Y-24100000D03*
X62200000Y-28225000D03*
X128000000Y-41000000D03*
X59870100Y-23382400D03*
X76600000Y-30400000D03*
X56800000Y-29000000D03*
X56000000Y-23600000D03*
X59800000Y-20500000D03*
X59870100Y-22382400D03*
X59000000Y-28200000D03*
X76400000Y-29300000D03*
X59051403Y-21392211D03*
X57900000Y-23900000D03*
X105500000Y-30900000D03*
X139722000Y-23116000D03*
X136800000Y-23800000D03*
X140484000Y-22862000D03*
X139585000Y-23904183D03*
X141246000Y-27682430D03*
X127200000Y-27400000D03*
X138000000Y-23800000D03*
X144294000Y-16121000D03*
X149120000Y-16257400D03*
X83577237Y-89077237D03*
X74335110Y-86352390D03*
X64800000Y-96200000D03*
X53500000Y-123000000D03*
X171065687Y-100434313D03*
X167000000Y-76500000D03*
X167999999Y-89000000D03*
X114600000Y-54300000D03*
X116500000Y-82000000D03*
X112500000Y-89800000D03*
X166500000Y-88000000D03*
X170500000Y-101000000D03*
X165500000Y-76500000D03*
X120849441Y-46249441D03*
X110800000Y-94200000D03*
X147800000Y-95000000D03*
X130700000Y-47800000D03*
X127800000Y-94600000D03*
X130000000Y-92400000D03*
X134100000Y-84100000D03*
X134100000Y-79375000D03*
X137000000Y-65200000D03*
X144500000Y-88000000D03*
X144500000Y-86000000D03*
X144500000Y-77500000D03*
X144000000Y-53500000D03*
X131000000Y-40500000D03*
X140000000Y-19500000D03*
X74750000Y-92000000D03*
X65500000Y-89500000D03*
X131500000Y-75375000D03*
X119000000Y-76000000D03*
X153500000Y-75000000D03*
X180000000Y-63500000D03*
X74750000Y-88500000D03*
X65500000Y-90750000D03*
X129500000Y-76625000D03*
X116500000Y-78000000D03*
X112000000Y-82500000D03*
X92500000Y-84000000D03*
X89000000Y-84000000D03*
X79500000Y-85000000D03*
X173000000Y-73000000D03*
X170000000Y-73500000D03*
X150000000Y-77500000D03*
X63300003Y-94000000D03*
X63500000Y-97500000D03*
X74800000Y-95400000D03*
X65400000Y-97600000D03*
X62500000Y-94000000D03*
X63000000Y-98500000D03*
X66600000Y-101600000D03*
X74600000Y-98800000D03*
X101000000Y3000000D03*
D28*
X55879900Y-123817600D02*
X55829901Y-123867599D01*
D29*
X18040000Y-17040000D02*
X18040000Y-16960000D01*
X18500000Y-17500000D02*
X18040000Y-17040000D01*
D28*
X142380000Y-106400000D02*
X142380000Y-103860000D01*
X143229999Y-107249999D02*
X168749999Y-107249999D01*
X142380000Y-106400000D02*
X143229999Y-107249999D01*
X182130000Y-120630000D02*
X190640000Y-120630000D01*
X168749999Y-107249999D02*
X182130000Y-120630000D01*
X56650001Y-57509999D02*
X48990001Y-57509999D01*
X57500000Y-56660000D02*
X56650001Y-57509999D01*
X45500000Y-61000000D02*
X45500000Y-65000000D01*
X48990001Y-57509999D02*
X45500000Y-61000000D01*
X60040000Y-56660000D02*
X57500000Y-56660000D01*
X57500000Y-54120000D02*
X57500000Y-56660000D01*
X57500000Y-54120000D02*
X60040000Y-54120000D01*
X60040000Y-54120000D02*
X60040000Y-56660000D01*
D29*
X182130000Y-120630000D02*
X182130000Y-122130000D01*
X182130000Y-122130000D02*
X182500000Y-122500000D01*
D28*
X55870000Y-123900000D02*
X55870000Y-125250000D01*
X49920000Y-123900000D02*
X49920000Y-125250000D01*
X49920000Y-123900000D02*
X49020000Y-123000000D01*
X18040000Y-118631370D02*
X18040000Y-117500000D01*
X18040000Y-122540000D02*
X18040000Y-118631370D01*
X18500000Y-123000000D02*
X18040000Y-122540000D01*
X49020000Y-123000000D02*
X18500000Y-123000000D01*
X108340000Y-109900000D02*
X108340000Y-111340000D01*
X108340000Y-111340000D02*
X115500000Y-118500000D01*
D29*
X40500000Y-27000000D02*
X39000000Y-27000000D01*
X38500000Y-27500000D02*
X39000000Y-27000000D01*
X78000000Y-71500000D02*
X77500000Y-72000000D01*
X77500000Y-72000000D02*
X77500000Y-80625000D01*
D28*
X99000000Y-109500000D02*
X97200010Y-107700010D01*
X70989962Y-113500000D02*
X61500000Y-113500000D01*
X97200010Y-107700010D02*
X76789952Y-107700010D01*
X76789952Y-107700010D02*
X70989962Y-113500000D01*
D29*
X69500000Y-57000000D02*
X69500000Y-71500000D01*
X62500000Y-110000000D02*
X60040000Y-110000000D01*
X63000000Y-105500000D02*
X63000000Y-109500000D01*
X63000000Y-109500000D02*
X62500000Y-110000000D01*
X57500000Y-43000000D02*
X57500000Y-54120000D01*
X56000000Y-41500000D02*
X57500000Y-43000000D01*
X49000000Y-122980000D02*
X49020000Y-123000000D01*
X49000000Y-120000000D02*
X49000000Y-122980000D01*
X136283001Y-24776999D02*
X135912000Y-25148000D01*
X140230000Y-25148000D02*
X139858999Y-24776999D01*
X139858999Y-24776999D02*
X136283001Y-24776999D01*
X143956264Y-25148000D02*
X144040000Y-25231736D01*
X143532000Y-25148000D02*
X143956264Y-25148000D01*
X144040000Y-25231736D02*
X144040000Y-27942000D01*
X144040000Y-27942000D02*
X144040000Y-28678430D01*
X144040000Y-28678430D02*
X144294000Y-28932430D01*
D28*
X190640000Y-120630000D02*
X195602000Y-115668000D01*
X182350000Y-30000000D02*
X181000000Y-30000000D01*
X187210001Y-28699999D02*
X183650001Y-28699999D01*
X195602000Y-37091998D02*
X187210001Y-28699999D01*
X183650001Y-28699999D02*
X182350000Y-30000000D01*
X195602000Y-115668000D02*
X195602000Y-37091998D01*
D29*
X121397919Y-57760000D02*
X121237919Y-57600000D01*
X122600000Y-57760000D02*
X121397919Y-57760000D01*
X121237919Y-57600000D02*
X121200000Y-57600000D01*
X119000000Y-55400000D02*
X119000000Y-46000000D01*
X121200000Y-57600000D02*
X119000000Y-55400000D01*
X18040000Y-5000000D02*
X18040000Y-16960000D01*
X16545000Y-123000000D02*
X13885000Y-120340000D01*
X18500000Y-123000000D02*
X16545000Y-123000000D01*
X13885000Y-120340000D02*
X13885000Y-100340000D01*
X18040000Y-97500000D02*
X18040000Y-117500000D01*
X13885000Y-7840000D02*
X13885000Y12160000D01*
X18040000Y15000000D02*
X18040000Y-5000000D01*
X13885000Y-12885000D02*
X18500000Y-17500000D01*
X13885000Y-7840000D02*
X13885000Y-12885000D01*
X17500000Y-89600000D02*
X14600000Y-86700000D01*
X185000000Y9948630D02*
X185000000Y11080000D01*
X186378631Y8569999D02*
X185000000Y9948630D01*
X187860003Y8569999D02*
X186378631Y8569999D01*
X188965001Y7465001D02*
X187860003Y8569999D01*
X188965001Y6534999D02*
X188965001Y7465001D01*
X195602000Y-102000D02*
X188965001Y6534999D01*
X195602000Y-37091998D02*
X195602000Y-102000D01*
X9500000Y-35500000D02*
X9500000Y-29500000D01*
X9500000Y-29174264D02*
X9500000Y-29500000D01*
X10000000Y-28674264D02*
X9500000Y-29174264D01*
X10000000Y-28250000D02*
X10000000Y-28674264D01*
X60040000Y-106977390D02*
X60040000Y-107460000D01*
X69500000Y-97517390D02*
X60040000Y-106977390D01*
D28*
X56650001Y-108309999D02*
X57500000Y-107460000D01*
X56650001Y-108309999D02*
X56650001Y-108416837D01*
X56650001Y-108416837D02*
X53158419Y-111908419D01*
X41730000Y-113988014D02*
X41730000Y-113500000D01*
X42591996Y-114850010D02*
X41730000Y-113988014D01*
X51283419Y-113783419D02*
X50216828Y-114850010D01*
X50216828Y-114850010D02*
X42591996Y-114850010D01*
D29*
X122500000Y12500000D02*
X94000000Y12500000D01*
X94000000Y12500000D02*
X85500000Y4000000D01*
X75500000Y-14500000D02*
X75500000Y-20500000D01*
X75500000Y-26500000D02*
X75500000Y-46863590D01*
X75500000Y-46863590D02*
X65500000Y-56863590D01*
X45500000Y-73200000D02*
X45500000Y-74300000D01*
X45624999Y-73075001D02*
X45500000Y-73200000D01*
X60604001Y-73075001D02*
X45624999Y-73075001D01*
X65500000Y-68179002D02*
X60604001Y-73075001D01*
X65500000Y-56863590D02*
X65500000Y-68179002D01*
D28*
X45500000Y-74300000D02*
X45500000Y-86500000D01*
X53460000Y-107460000D02*
X57500000Y-107460000D01*
X51500000Y-105500000D02*
X53460000Y-107460000D01*
D29*
X18894640Y-84691942D02*
X28808058Y-84691942D01*
X14500000Y-79507400D02*
X14500000Y-80297302D01*
X14500000Y-80297302D02*
X18894640Y-84691942D01*
X8546615Y-66950030D02*
X8546615Y-47953385D01*
X8546615Y-47953385D02*
X14000000Y-42500000D01*
X15500000Y-38500000D02*
X15500000Y-37500000D01*
X15500000Y-37500000D02*
X13500000Y-35500000D01*
X60040000Y-107460000D02*
X57500000Y-107460000D01*
X61307401Y-24374999D02*
X60000000Y-25682400D01*
X75500000Y-26500000D02*
X73374999Y-24374999D01*
X73374999Y-24374999D02*
X61307401Y-24374999D01*
X69500000Y-99000000D02*
X69500000Y-97517390D01*
X42374999Y-73875001D02*
X45500000Y-70750000D01*
X45500000Y-70750000D02*
X45500000Y-69650000D01*
X25362701Y-73875001D02*
X42374999Y-73875001D01*
X24620100Y-73132400D02*
X25362701Y-73875001D01*
D28*
X45500000Y-69650000D02*
X46850000Y-69650000D01*
X60040000Y-104920000D02*
X57500000Y-104920000D01*
X53920000Y-104920000D02*
X57500000Y-104920000D01*
X42374999Y-73875001D02*
X42374999Y-93374999D01*
X42374999Y-93374999D02*
X53920000Y-104920000D01*
X141530001Y-102169999D02*
X142380000Y-101320000D01*
X141079999Y-102620001D02*
X141530001Y-102169999D01*
X141079999Y-107639999D02*
X141079999Y-102620001D01*
X142380000Y-108940000D02*
X141079999Y-107639999D01*
D29*
X143229999Y-109789999D02*
X165789999Y-109789999D01*
X142380000Y-108940000D02*
X143229999Y-109789999D01*
X165789999Y-109789999D02*
X181500000Y-125500000D01*
X181500000Y-125500000D02*
X182500000Y-125500000D01*
X24500000Y-30000000D02*
X26000000Y-31500000D01*
X26000000Y-31500000D02*
X28000000Y-33500000D01*
D28*
X190625000Y-53050000D02*
X190625000Y-50510000D01*
X187350000Y-30000000D02*
X186000000Y-30000000D01*
X190776000Y-33426000D02*
X187350000Y-30000000D01*
X190776000Y-49156919D02*
X190776000Y-33426000D01*
X190625000Y-49307919D02*
X190776000Y-49156919D01*
X190625000Y-50510000D02*
X190625000Y-49307919D01*
X173669088Y-99684312D02*
X158886288Y-99684312D01*
X178965000Y-94388400D02*
X173669088Y-99684312D01*
X157250600Y-101320000D02*
X142380000Y-101320000D01*
X158886288Y-99684312D02*
X157250600Y-101320000D01*
D29*
X60040000Y-102380000D02*
X57500000Y-102380000D01*
X171935119Y-43974981D02*
X178410100Y-37500000D01*
X151073607Y-43974981D02*
X171935119Y-43974981D01*
X142048588Y-53000000D02*
X151073607Y-43974981D01*
X139863590Y-53000000D02*
X142048588Y-53000000D01*
X118802178Y-71000000D02*
X121863590Y-71000000D01*
X78421211Y-96442379D02*
X101888589Y-72975001D01*
X67921211Y-96442379D02*
X78421211Y-96442379D01*
X58675001Y-98664999D02*
X60664999Y-98664999D01*
X60664999Y-98664999D02*
X61389990Y-99389990D01*
X61389990Y-99389990D02*
X64973600Y-99389990D01*
X121863590Y-71000000D02*
X139863590Y-53000000D01*
X57500000Y-99840000D02*
X58675001Y-98664999D01*
X64973600Y-99389990D02*
X67921211Y-96442379D01*
X118802178Y-71000000D02*
X118083060Y-71000000D01*
X118083060Y-71000000D02*
X116633059Y-72450001D01*
X111000000Y-72450001D02*
X110450001Y-73000000D01*
X101913588Y-73000000D02*
X101888589Y-72975001D01*
X110450001Y-73000000D02*
X101913588Y-73000000D01*
X151381824Y-44424990D02*
X180500000Y-44424990D01*
X183490100Y-41434890D02*
X183490100Y-37500000D01*
X146874992Y-48931822D02*
X151381824Y-44424990D01*
X180500000Y-44424990D02*
X183490100Y-41434890D01*
X146753176Y-48931822D02*
X146874992Y-48931822D01*
X142184998Y-53500000D02*
X146753176Y-48931822D01*
X114500000Y-76500000D02*
X114500000Y-75938588D01*
X114000000Y-77000000D02*
X114500000Y-76500000D01*
X121935009Y-71564991D02*
X140000000Y-53500000D01*
X114500000Y-75938588D02*
X118873596Y-71564992D01*
X118873596Y-71564992D02*
X121935009Y-71564991D01*
X140000000Y-53500000D02*
X142184998Y-53500000D01*
X65160000Y-99840000D02*
X60040000Y-99840000D01*
X110000000Y-77530001D02*
X110000000Y-76800998D01*
X110000000Y-76800998D02*
X108904001Y-75704999D01*
X99795001Y-75704999D02*
X78607611Y-96892389D01*
X68107611Y-96892389D02*
X65160000Y-99840000D01*
X108904001Y-75704999D02*
X99795001Y-75704999D01*
X78607611Y-96892389D02*
X68107611Y-96892389D01*
X87000000Y-57000000D02*
X89000000Y-59000000D01*
X89000000Y-59000000D02*
X89000000Y-81818353D01*
X89000000Y-81818353D02*
X87443353Y-83375000D01*
X85943353Y-84943353D02*
X87489853Y-86489853D01*
D28*
X52158420Y-112658420D02*
X70841580Y-112658420D01*
X51500000Y-112000000D02*
X52158420Y-112658420D01*
X70841580Y-112658420D02*
X76500000Y-107000000D01*
X98540000Y-107000000D02*
X105800000Y-99740000D01*
X76500000Y-107000000D02*
X98540000Y-107000000D01*
D29*
X116000000Y-92125000D02*
X115500000Y-92625000D01*
X116000000Y-91000000D02*
X116000000Y-92125000D01*
X119425002Y-82500000D02*
X117500000Y-82500000D01*
X123800001Y-78125001D02*
X119425002Y-82500000D01*
X132125001Y-62625001D02*
X132125001Y-75800001D01*
X129800001Y-78125001D02*
X123800001Y-78125001D01*
X132125001Y-75800001D02*
X129800001Y-78125001D01*
X132000000Y-62500000D02*
X132125001Y-62625001D01*
X136500000Y-58000000D02*
X132000000Y-62500000D01*
X130000000Y-21500000D02*
X130000000Y-42000000D01*
X132000000Y-19500000D02*
X130000000Y-21500000D01*
X132000000Y-1500000D02*
X132000000Y-19500000D01*
X127580000Y7420000D02*
X131000000Y4000000D01*
X127580000Y12500000D02*
X127580000Y7420000D01*
X150980101Y-38349999D02*
X150980101Y-40019899D01*
X151830100Y-37500000D02*
X150980101Y-38349999D01*
X146374999Y-44625001D02*
X146374999Y-48037179D01*
X150980101Y-40019899D02*
X146374999Y-44625001D01*
X141862188Y-52549990D02*
X139677190Y-52549990D01*
X146374999Y-48037179D02*
X141862188Y-52549990D01*
X139677190Y-52549990D02*
X123237327Y-68989853D01*
X123237327Y-68989853D02*
X122989853Y-68989853D01*
X129500000Y-77500000D02*
X120000000Y-77500000D01*
X156000000Y-46725002D02*
X156000000Y-45049991D01*
X149985000Y-50510000D02*
X153269999Y-47225001D01*
X155500001Y-47225001D02*
X156000000Y-46725002D01*
X153269999Y-47225001D02*
X155500001Y-47225001D01*
X156600000Y-41307800D02*
X156600000Y-40000000D01*
X156600000Y-40000000D02*
X156400000Y-39800000D01*
X109189999Y-98049999D02*
X145950001Y-98049999D01*
X145950001Y-98049999D02*
X148814999Y-95185001D01*
X108340000Y-97200000D02*
X109189999Y-98049999D01*
X148809999Y-47960340D02*
X151720349Y-45049990D01*
X154370100Y-42404881D02*
X154370100Y-37500000D01*
X153425000Y-43349981D02*
X154370100Y-42404881D01*
X168254596Y-40682800D02*
X161323284Y-40682800D01*
X148809999Y-95180001D02*
X148814999Y-95185001D01*
X148809999Y-47960340D02*
X148809999Y-95180001D01*
X142005997Y-92335001D02*
X145664999Y-92335001D01*
X106975001Y-93295001D02*
X141045997Y-93295001D01*
X146164999Y-92335001D02*
X146500000Y-92000000D01*
X141045997Y-93295001D02*
X142005997Y-92335001D01*
X145664999Y-92335001D02*
X146164999Y-92335001D01*
X105800000Y-92120000D02*
X106975001Y-93295001D01*
X167509600Y-40057800D02*
X162099400Y-40057800D01*
X147875001Y-90624999D02*
X147875001Y-66727401D01*
X146500000Y-92000000D02*
X147875001Y-90624999D01*
X147875400Y-55218604D02*
X147875400Y-54891400D01*
X147875001Y-66727401D02*
X147875001Y-55219003D01*
X147875001Y-55219003D02*
X147875400Y-55218604D01*
X146750100Y-40929100D02*
X146750100Y-37500000D01*
X145894200Y-41785000D02*
X146750100Y-40929100D01*
X150140099Y-38349999D02*
X150140099Y-39859901D01*
X149290100Y-37500000D02*
X150140099Y-38349999D01*
X150140099Y-40223491D02*
X145924989Y-44438601D01*
X150140099Y-39859901D02*
X150140099Y-40223491D01*
X145924989Y-44438601D02*
X145924989Y-47850779D01*
X141675788Y-52099980D02*
X139490789Y-52099981D01*
X145924989Y-47850779D02*
X141675788Y-52099980D01*
X139490789Y-52099981D02*
X129795385Y-61795385D01*
X129795385Y-61795385D02*
X123590770Y-68000000D01*
X120158058Y-68000000D02*
X114158058Y-74000000D01*
X123590770Y-68000000D02*
X120158058Y-68000000D01*
X117074998Y-81000000D02*
X120000000Y-81000000D01*
X113374999Y-77300001D02*
X117074998Y-81000000D01*
X114158058Y-74000000D02*
X113374999Y-74783059D01*
X113374999Y-74783059D02*
X113374999Y-77300001D01*
X108460000Y-92000000D02*
X108340000Y-92120000D01*
X113000000Y-92000000D02*
X108460000Y-92000000D01*
X155200000Y-46600000D02*
X155200000Y-45049990D01*
X150465101Y-36324999D02*
X150140099Y-36650001D01*
X155480101Y-36324999D02*
X150465101Y-36324999D01*
X155545101Y-36389999D02*
X155480101Y-36324999D01*
X155545101Y-41689501D02*
X155545101Y-36389999D01*
X155229433Y-42005169D02*
X155545101Y-41689501D01*
X150140099Y-36650001D02*
X149290100Y-37500000D01*
X155229433Y-42429433D02*
X155229433Y-42005169D01*
X89625001Y-84354705D02*
X88489853Y-85489853D01*
X88000000Y-57000000D02*
X89625001Y-58625001D01*
X89625001Y-58625001D02*
X89625001Y-84354705D01*
X100000000Y-45625000D02*
X100000000Y-73500000D01*
X100000000Y-73500000D02*
X92000000Y-81500000D01*
X102199999Y-78874999D02*
X103515997Y-78874999D01*
X101000000Y-80074998D02*
X102199999Y-78874999D01*
X101000000Y-81500000D02*
X101000000Y-80074998D01*
X107490001Y-78570001D02*
X108340000Y-79420000D01*
X107164999Y-78244999D02*
X107490001Y-78570001D01*
X104145997Y-78244999D02*
X107164999Y-78244999D01*
X103515997Y-78874999D02*
X104145997Y-78244999D01*
X57500000Y-97300000D02*
X53300000Y-97300000D01*
X53300000Y-97300000D02*
X43500000Y-87500000D01*
X33500000Y-42900000D02*
X33500000Y-73000000D01*
X37500000Y-40000000D02*
X36400000Y-40000000D01*
X36400000Y-40000000D02*
X33500000Y-42900000D01*
X58864999Y-94385997D02*
X58864999Y-96124999D01*
X59190001Y-96450001D02*
X60040000Y-97300000D01*
X58064001Y-93584999D02*
X58864999Y-94385997D01*
X58864999Y-96124999D02*
X59190001Y-96450001D01*
X53584999Y-93584999D02*
X58064001Y-93584999D01*
X52000000Y-92000000D02*
X53584999Y-93584999D01*
X43924264Y-86699997D02*
X43500000Y-86699997D01*
X44125001Y-86900734D02*
X43924264Y-86699997D01*
X44125001Y-87488591D02*
X44125001Y-86900734D01*
X51396410Y-94760000D02*
X44125001Y-87488591D01*
X57500000Y-94760000D02*
X51396410Y-94760000D01*
X144210100Y-37500000D02*
X136710100Y-45000000D01*
X136710100Y-45000000D02*
X78000000Y-45000000D01*
X78000000Y-45000000D02*
X66000000Y-57000000D01*
X58349999Y-91370001D02*
X57500000Y-92220000D01*
X58675001Y-91044999D02*
X58349999Y-91370001D01*
X61955001Y-91044999D02*
X58675001Y-91044999D01*
X66000000Y-87000000D02*
X61955001Y-91044999D01*
X66000000Y-57000000D02*
X66000000Y-87000000D01*
X162175600Y-45595000D02*
X169236800Y-45595000D01*
X141670100Y-38702081D02*
X136372181Y-44000000D01*
X141670100Y-37500000D02*
X141670100Y-38702081D01*
X136372181Y-44000000D02*
X78000000Y-44000000D01*
X78000000Y-44000000D02*
X77000000Y-45000000D01*
X68000000Y-57000000D02*
X68000000Y-80000000D01*
X68000000Y-80000000D02*
X67000000Y-81000000D01*
X73739853Y-47739853D02*
X68479706Y-53000000D01*
X68479706Y-53000000D02*
X68000000Y-53000000D01*
X177390200Y-45137800D02*
X177127400Y-44875000D01*
X177127400Y-44875000D02*
X161334591Y-44875000D01*
X161334591Y-44875000D02*
X161159600Y-45049991D01*
X141670100Y-36179300D02*
X141670100Y-37500000D01*
X143125600Y-34723800D02*
X141670100Y-36179300D01*
X155368400Y-34723800D02*
X143125600Y-34723800D01*
X157425800Y-41307800D02*
X157425800Y-36781200D01*
X157425800Y-36781200D02*
X155368400Y-34723800D01*
X190640000Y-83540000D02*
X177165000Y-83540000D01*
X112500000Y-81000000D02*
X114625001Y-83125001D01*
X114625001Y-83125001D02*
X119874999Y-83125001D01*
X119874999Y-83125001D02*
X120667830Y-82332170D01*
X120667830Y-82332170D02*
X140095776Y-82332170D01*
X143500000Y-82500000D02*
X147000000Y-82500000D01*
X177165000Y-83540000D02*
X170500000Y-76875000D01*
X151875000Y-81500000D02*
X152875000Y-80500000D01*
X152875000Y-80500000D02*
X165500000Y-80500000D01*
D28*
X55730000Y-79520000D02*
X57500000Y-79520000D01*
X53250000Y-82000000D02*
X55730000Y-79520000D01*
D29*
X191489999Y-85230001D02*
X190640000Y-86080000D01*
X191815001Y-84904999D02*
X191489999Y-85230001D01*
X191750001Y-82364999D02*
X191815001Y-82429999D01*
X191815001Y-82429999D02*
X191815001Y-84904999D01*
X177864999Y-82364999D02*
X191750001Y-82364999D01*
X141815999Y-84904999D02*
X145904999Y-84904999D01*
X139785999Y-82874999D02*
X141815999Y-84904999D01*
X132699999Y-82874999D02*
X139785999Y-82874999D01*
X102500000Y-79500000D02*
X103595001Y-80595001D01*
X103595001Y-80595001D02*
X111169999Y-80595001D01*
X131999987Y-83575011D02*
X132699999Y-82874999D01*
X111169999Y-80595001D02*
X114150009Y-83575011D01*
X114150009Y-83575011D02*
X131999987Y-83575011D01*
X156893058Y-77606942D02*
X158000000Y-76500000D01*
X153000000Y-81500000D02*
X153125000Y-81500000D01*
X150000000Y-84500000D02*
X153000000Y-81500000D01*
X145904999Y-84904999D02*
X146000000Y-85000000D01*
X158000000Y-76500000D02*
X160500000Y-76500000D01*
X162000000Y-74375000D02*
X165375000Y-71000000D01*
X171500000Y-76000000D02*
X177864999Y-82364999D01*
X147250000Y-85000000D02*
X146000000Y-85000000D01*
X165375000Y-71000000D02*
X166500000Y-71000000D01*
D28*
X54000000Y-79000000D02*
X54000000Y-78000000D01*
X55020000Y-76980000D02*
X57500000Y-76980000D01*
X54000000Y-78000000D02*
X55020000Y-76980000D01*
D29*
X70500000Y-57000000D02*
X70500000Y-72500000D01*
X70500000Y-72500000D02*
X69000000Y-74000000D01*
X134500000Y-113500000D02*
X134500000Y-103500000D01*
X86077237Y-86577237D02*
X84125000Y-84625000D01*
X84125000Y-84625000D02*
X84000000Y-84625000D01*
X80000000Y-81000000D02*
X80000000Y-75000000D01*
X80000000Y-75000000D02*
X79000000Y-74000000D01*
X85000000Y-56500000D02*
X85299999Y-56200001D01*
X85299999Y-56200001D02*
X88700001Y-56200001D01*
X88700001Y-56200001D02*
X88899999Y-56200001D01*
X88899999Y-56200001D02*
X89200000Y-55900000D01*
X69618000Y-19306000D02*
X65300000Y-23624000D01*
X65300000Y-23624000D02*
X64792000Y-23624000D01*
X149628000Y-19306000D02*
X148866000Y-20068000D01*
X148866000Y-20068000D02*
X148866000Y-24894000D01*
X148866000Y-24894000D02*
X148612000Y-25148000D01*
X11870100Y-67882400D02*
X8870100Y-70882400D01*
X7870100Y-71882400D02*
X8870100Y-70882400D01*
X7870100Y-74632400D02*
X7870100Y-71882400D01*
X12545099Y-67207401D02*
X11870100Y-67882400D01*
X12870101Y-66882399D02*
X12545099Y-67207401D01*
X14805101Y-66882399D02*
X12870101Y-66882399D01*
X20545101Y-82807399D02*
X20545101Y-72622399D01*
X20470100Y-82882400D02*
X20545101Y-82807399D01*
X20545101Y-72622399D02*
X14805101Y-66882399D01*
X19370100Y-82882400D02*
X20470100Y-82882400D01*
X18870100Y-60882400D02*
X11870100Y-67882400D01*
X18870100Y-55382400D02*
X18870100Y-60882400D01*
X10370100Y-78882400D02*
X7120100Y-75632400D01*
X19370100Y-78882400D02*
X10370100Y-78882400D01*
X6950001Y-75462301D02*
X7120100Y-75632400D01*
X6950001Y-73549999D02*
X6950001Y-75462301D01*
X11870100Y-25382400D02*
X6570101Y-30682399D01*
X6500000Y-33425002D02*
X6500000Y-32500000D01*
X19370100Y-40382400D02*
X13457398Y-40382400D01*
X13457398Y-40382400D02*
X6500000Y-33425002D01*
X6500000Y-30752500D02*
X6570101Y-30682399D01*
X6500000Y-32500000D02*
X6500000Y-30752500D01*
X11300000Y-18900000D02*
X10700000Y-19500000D01*
X10700000Y-19500000D02*
X10700000Y-21900000D01*
X11870100Y-23070100D02*
X11870100Y-25382400D01*
X10700000Y-21900000D02*
X11870100Y-23070100D01*
X7370100Y-33132400D02*
X7620100Y-33382400D01*
X7370100Y-30882400D02*
X7370100Y-33132400D01*
X20470100Y-36382400D02*
X19370100Y-36382400D01*
X20545101Y-41492401D02*
X20545101Y-36457401D01*
X20480101Y-41557401D02*
X20545101Y-41492401D01*
X20545101Y-36457401D02*
X20470100Y-36382400D01*
X13557401Y-41557401D02*
X20480101Y-41557401D01*
X6500000Y-34500000D02*
X13557401Y-41557401D01*
X20480101Y-49697399D02*
X20480101Y-41557401D01*
X19795100Y-50382400D02*
X20480101Y-49697399D01*
X18870100Y-50382400D02*
X19795100Y-50382400D01*
X139468000Y-25402000D02*
X137944000Y-25402000D01*
X139839001Y-25773001D02*
X139468000Y-25402000D01*
X140054998Y-25773001D02*
X139839001Y-25773001D01*
X140230000Y-25948003D02*
X140054998Y-25773001D01*
X80500000Y-90000000D02*
X81577237Y-91077237D01*
X140230000Y-27591432D02*
X142646009Y-30007441D01*
X140230000Y-25948003D02*
X140230000Y-27591432D01*
X142646009Y-30007441D02*
X164580559Y-30007441D01*
X164580559Y-30007441D02*
X166900000Y-27688000D01*
X69795800Y-105750000D02*
X66595400Y-108950400D01*
X66595400Y-108950400D02*
X66595400Y-109298200D01*
X56841800Y-116664200D02*
X53768400Y-116664200D01*
X53768400Y-116664200D02*
X53082600Y-117350000D01*
X22424800Y-88800400D02*
X18462400Y-88800400D01*
X18462400Y-88800400D02*
X13179200Y-83517200D01*
X13179200Y-83517200D02*
X12391800Y-83517200D01*
X12391800Y-83517200D02*
X11121800Y-82247200D01*
X11121800Y-82247200D02*
X11121800Y-79605600D01*
X61435001Y-60564999D02*
X63000000Y-59000000D01*
X52299999Y-60564999D02*
X61435001Y-60564999D01*
X37500000Y-70160000D02*
X42704998Y-70160000D01*
X42704998Y-70160000D02*
X52299999Y-60564999D01*
X138840000Y-80000000D02*
X142380000Y-83540000D01*
X124000000Y-80000000D02*
X138840000Y-80000000D01*
X133000000Y-83500000D02*
X133000000Y-84500000D01*
X133000000Y-84500000D02*
X131000000Y-86500000D01*
X16120100Y-72132400D02*
X17370100Y-70882400D01*
X16120100Y-75632400D02*
X16120100Y-72132400D01*
X139000000Y-99500000D02*
X136500000Y-99500000D01*
X136500000Y-99500000D02*
X122500000Y-113500000D01*
X122500000Y-113500000D02*
X122199997Y-113800003D01*
X122199997Y-113800003D02*
X112500000Y-113800003D01*
X101500000Y-110136410D02*
X101500000Y-105500000D01*
X108500000Y-113800003D02*
X105163593Y-113800003D01*
X105163593Y-113800003D02*
X101500000Y-110136410D01*
X95524441Y-105475559D02*
X82024441Y-105475559D01*
X82024441Y-105475559D02*
X73524441Y-105475559D01*
X73524441Y-105475559D02*
X67500000Y-111500000D01*
X57500000Y-115300003D02*
X54199997Y-115300003D01*
X38813599Y-118450009D02*
X37500000Y-117136410D01*
X54199997Y-115300003D02*
X51049991Y-118450009D01*
X51049991Y-118450009D02*
X38813599Y-118450009D01*
X37500000Y-117136410D02*
X37500000Y-92500000D01*
X37500000Y-92500000D02*
X22000000Y-77000000D01*
X17487700Y-77000000D02*
X16120100Y-75632400D01*
X19000000Y-77000000D02*
X17487700Y-77000000D01*
X146300003Y-63770001D02*
X146300003Y-81500000D01*
X145500000Y-63770001D02*
X145500000Y-81500000D01*
X139000000Y-98674999D02*
X136325001Y-98674999D01*
X136325001Y-98674999D02*
X122000000Y-113000000D01*
X122000000Y-113000000D02*
X112500000Y-113000000D01*
X108500000Y-113000000D02*
X105000000Y-113000000D01*
X105000000Y-113000000D02*
X102500000Y-110500000D01*
X102500000Y-110500000D02*
X102500000Y-105000000D01*
X95000000Y-104500000D02*
X73000000Y-104500000D01*
X73000000Y-104500000D02*
X66500000Y-111000000D01*
X57500000Y-114500000D02*
X54000000Y-114500000D01*
X54000000Y-114500000D02*
X50500000Y-118000000D01*
X50500000Y-118000000D02*
X39000000Y-118000000D01*
X39000000Y-118000000D02*
X38000000Y-117000000D01*
X38000000Y-117000000D02*
X38000000Y-92000000D01*
X38000000Y-92000000D02*
X21425100Y-75425100D01*
X21425100Y-75425100D02*
X21425100Y-71927400D01*
X115000000Y-78000000D02*
X115000000Y-76074998D01*
X127000000Y-72000000D02*
X122136410Y-72000000D01*
X119059998Y-72015000D02*
X115037499Y-76037499D01*
X122121408Y-72015000D02*
X119059998Y-72015000D01*
X122136410Y-72000000D02*
X122121408Y-72015000D01*
X129000000Y-72000000D02*
X127000000Y-72000000D01*
X156052790Y-69115400D02*
X168244790Y-69115400D01*
X150000000Y-72000000D02*
X153168190Y-72000000D01*
X153168190Y-72000000D02*
X156052790Y-69115400D01*
X181655990Y-55704200D02*
X184019600Y-55704200D01*
X168244790Y-69115400D02*
X181655990Y-55704200D01*
X187235001Y-51359999D02*
X188085000Y-50510000D01*
X186909999Y-51685001D02*
X187235001Y-51359999D01*
X184369999Y-52485999D02*
X185170997Y-51685001D01*
X185170997Y-51685001D02*
X186909999Y-51685001D01*
X184369999Y-55353801D02*
X184369999Y-52485999D01*
X184019600Y-55704200D02*
X184369999Y-55353801D01*
X117000000Y-75000000D02*
X117299999Y-74700001D01*
X117500000Y-74500000D02*
X117299999Y-74700001D01*
X129000000Y-74500000D02*
X117500000Y-74500000D01*
X153705001Y-72705001D02*
X153705001Y-72294999D01*
X153125000Y-74000000D02*
X153705001Y-73419999D01*
X153705001Y-73419999D02*
X153705001Y-72294999D01*
X153705001Y-72294999D02*
X153705001Y-72099599D01*
X153705001Y-72099599D02*
X156206600Y-69598000D01*
X156206600Y-69598000D02*
X168398600Y-69598000D01*
X168398600Y-69598000D02*
X181632000Y-56364600D01*
X181632000Y-56364600D02*
X184324400Y-56364600D01*
X185545000Y-55144000D02*
X185545000Y-53050000D01*
X184324400Y-56364600D02*
X185545000Y-55144000D01*
X136590100Y-37500000D02*
X132000000Y-37500000D01*
X127000000Y-38375000D02*
X123375000Y-42000000D01*
X123375000Y-42000000D02*
X77665000Y-42000000D01*
X77665000Y-42000000D02*
X76500000Y-43165000D01*
X74000000Y-45000000D02*
X65000000Y-54000000D01*
X65000000Y-54000000D02*
X65000000Y-67500000D01*
X65000000Y-67500000D02*
X63500000Y-69000000D01*
X62280000Y-92220000D02*
X60040000Y-92220000D01*
X63000000Y-91500000D02*
X62280000Y-92220000D01*
X63500000Y-72450001D02*
X63500000Y-84500000D01*
X139816309Y-34273791D02*
X155554801Y-34273791D01*
X136590100Y-37500000D02*
X139816309Y-34273791D01*
X155554801Y-34273791D02*
X160698283Y-39417273D01*
X160698283Y-39417273D02*
X160698283Y-40982801D01*
X160698283Y-40982801D02*
X162715482Y-43000000D01*
X162715482Y-43000000D02*
X162800000Y-43000000D01*
X139130100Y-37500000D02*
X139130100Y-39869900D01*
X139130100Y-39869900D02*
X136000000Y-43000000D01*
X136000000Y-43000000D02*
X119000000Y-43000000D01*
X119000000Y-43000000D02*
X78000000Y-43000000D01*
X78000000Y-43000000D02*
X77000000Y-44000000D01*
X74000000Y-46000000D02*
X67000000Y-53000000D01*
X67000000Y-57000000D02*
X67000000Y-76500000D01*
X69000000Y-77000000D02*
X69000000Y-80131374D01*
X69000000Y-80131374D02*
X67565687Y-81565687D01*
X147800000Y-45200000D02*
X148964704Y-45200000D01*
X148964704Y-45200000D02*
X149282352Y-44882352D01*
X182000000Y-32875000D02*
X172875000Y-32875000D01*
X162870100Y-23282400D02*
X162870100Y-24382400D01*
X162945101Y-23207399D02*
X162870100Y-23282400D01*
X168980101Y-23207399D02*
X162945101Y-23207399D01*
X172875000Y-27102298D02*
X168980101Y-23207399D01*
X172875000Y-32875000D02*
X172875000Y-27102298D01*
X143532000Y-21338000D02*
X143786000Y-21084000D01*
X142262000Y-21338000D02*
X143532000Y-21338000D01*
X143786000Y-21084000D02*
X143786000Y-20068000D01*
X141754000Y-21846000D02*
X142262000Y-21338000D01*
X142262000Y-27682430D02*
X141754000Y-27174430D01*
X141754000Y-27174430D02*
X141754000Y-21846000D01*
X183000000Y-34500000D02*
X182000000Y-33500000D01*
X182000000Y-33500000D02*
X172500000Y-33500000D01*
X167870100Y-28870100D02*
X167870100Y-24382400D01*
X172500000Y-33500000D02*
X167870100Y-28870100D01*
X13870100Y-25382400D02*
X13350102Y-25382400D01*
X57500000Y-87140000D02*
X49140000Y-87140000D01*
X49140000Y-87140000D02*
X47000000Y-85000000D01*
X38500000Y-84000000D02*
X33500000Y-84000000D01*
X33500000Y-84000000D02*
X30000000Y-80500000D01*
X30000000Y-80500000D02*
X30000000Y-74500001D01*
X25470100Y-25382400D02*
X24370100Y-25382400D01*
X30000000Y-29912300D02*
X25470100Y-25382400D01*
X30000000Y-33500000D02*
X30000000Y-29912300D01*
X18270100Y-25382400D02*
X19370100Y-25382400D01*
X16000000Y-27652500D02*
X18270100Y-25382400D01*
X16000000Y-33250000D02*
X16000000Y-27652500D01*
X58864999Y-85964999D02*
X56535001Y-85964999D01*
X60040000Y-87140000D02*
X58864999Y-85964999D01*
X56535001Y-85964999D02*
X56000000Y-86500000D01*
X56000000Y-86500000D02*
X51500000Y-86500000D01*
X51500000Y-86500000D02*
X49500000Y-86500000D01*
X49500000Y-86500000D02*
X47000000Y-84000000D01*
X38500000Y-83000000D02*
X33500000Y-83000000D01*
X33500000Y-83000000D02*
X31000000Y-80500000D01*
X31000000Y-80500000D02*
X31000000Y-74500001D01*
X16299999Y-33549999D02*
X16000000Y-33250000D01*
X16875001Y-34125001D02*
X16299999Y-33549999D01*
X30374999Y-34125001D02*
X16875001Y-34125001D01*
X30374999Y-34125001D02*
X30625001Y-34125001D01*
X61500000Y-84320998D02*
X61500000Y-85423590D01*
X60604001Y-83424999D02*
X61500000Y-84320998D01*
X57500000Y-84600000D02*
X58675001Y-83424999D01*
X58675001Y-83424999D02*
X60604001Y-83424999D01*
X61500000Y-85423590D02*
X61519036Y-85442626D01*
X61519036Y-85442626D02*
X65173490Y-85442626D01*
X66958059Y-83658056D02*
X74000000Y-76616115D01*
X74000000Y-76616115D02*
X74000000Y-56000000D01*
X60374989Y-40006363D02*
X60374989Y-31125011D01*
X68934313Y-48565687D02*
X60374989Y-40006363D01*
X60374989Y-31125011D02*
X63468107Y-28031893D01*
X63468107Y-28031893D02*
X63468107Y-27925830D01*
X60824999Y-39324999D02*
X69500000Y-48000000D01*
X60824999Y-31389999D02*
X60824999Y-39324999D01*
X67000000Y-28500000D02*
X63714998Y-28500000D01*
X63714998Y-28500000D02*
X60824999Y-31389999D01*
X75000000Y-56000000D02*
X75000000Y-76500000D01*
X75000000Y-76500000D02*
X67000000Y-84500000D01*
X61940000Y-86500000D02*
X60040000Y-84600000D01*
X65049989Y-86500000D02*
X61940000Y-86500000D01*
X61617598Y-28225000D02*
X62200000Y-28225000D01*
X59150000Y-24100000D02*
X59150000Y-25757402D01*
X59150000Y-25757402D02*
X61617598Y-28225000D01*
X127870100Y-24382400D02*
X127870100Y-26870100D01*
X127870100Y-26870100D02*
X128000000Y-27000000D01*
X128000000Y-27000000D02*
X128000000Y-41000000D01*
X42870100Y-17982400D02*
X42870100Y-16882400D01*
X47970101Y-23082401D02*
X42870100Y-17982400D01*
X59570101Y-23082401D02*
X47970101Y-23082401D01*
X59870100Y-23382400D02*
X59570101Y-23082401D01*
X77725001Y-31525001D02*
X76600000Y-30400000D01*
X106899999Y-31525001D02*
X77725001Y-31525001D01*
X111000000Y-26500000D02*
X111000000Y-27425000D01*
X111000000Y-27425000D02*
X106899999Y-31525001D01*
X56800000Y-29000000D02*
X55900000Y-28100000D01*
X55900000Y-28100000D02*
X55900000Y-26300000D01*
X55900000Y-26300000D02*
X55900000Y-23700000D01*
X55900000Y-23700000D02*
X56000000Y-23600000D01*
X60170099Y-23082401D02*
X59870100Y-23382400D01*
X60495101Y-22757399D02*
X60170099Y-23082401D01*
X60495101Y-21195101D02*
X60495101Y-22757399D01*
X59800000Y-20500000D02*
X60495101Y-21195101D01*
X47870100Y-17982400D02*
X47870100Y-16882400D01*
X52270100Y-22382400D02*
X47870100Y-17982400D01*
X59870100Y-22382400D02*
X52270100Y-22382400D01*
X99125000Y-29300000D02*
X76400000Y-29300000D01*
X59000000Y-28200000D02*
X57900000Y-27100000D01*
X59592211Y-21392211D02*
X59870100Y-21670100D01*
X59870100Y-21670100D02*
X59870100Y-22382400D01*
X101000000Y-27425000D02*
X99125000Y-29300000D01*
X59051403Y-21392211D02*
X59592211Y-21392211D01*
X57900000Y-27100000D02*
X57900000Y-23900000D01*
X101000000Y-26500000D02*
X101000000Y-27425000D01*
X82870100Y-15782400D02*
X82870100Y-16882400D01*
X81999999Y-14912299D02*
X82870100Y-15782400D01*
X81999999Y-8000001D02*
X81999999Y-14912299D01*
X83000000Y-7000000D02*
X81999999Y-8000001D01*
X105500000Y-30900000D02*
X106000000Y-30400000D01*
X106000000Y-30400000D02*
X106000000Y-26500000D01*
X87870100Y-15782400D02*
X87870100Y-16882400D01*
X86999999Y-14912299D02*
X87870100Y-15782400D01*
X86999999Y-8000001D02*
X86999999Y-14912299D01*
X88000000Y-7000000D02*
X86999999Y-8000001D01*
X144942598Y-16882400D02*
X139624999Y-22199999D01*
X162870100Y-16882400D02*
X144942598Y-16882400D01*
X162870100Y-16129900D02*
X162870100Y-16882400D01*
X164000000Y-15000000D02*
X162870100Y-16129900D01*
X163000000Y-6000000D02*
X164000000Y-7000002D01*
X164000000Y-7000002D02*
X164000000Y-15000000D01*
X139624999Y-22199999D02*
X139624999Y-23018999D01*
X139624999Y-23018999D02*
X139722000Y-23116000D01*
X137484000Y-23116000D02*
X139722000Y-23116000D01*
X136800000Y-23800000D02*
X137484000Y-23116000D01*
X140484000Y-22862000D02*
X140484000Y-23286264D01*
X140484000Y-23286264D02*
X139866081Y-23904183D01*
X139866081Y-23904183D02*
X139585000Y-23904183D01*
X143024000Y-29460430D02*
X143024000Y-29466000D01*
X141246000Y-27682430D02*
X143024000Y-29460430D01*
X143024000Y-29460430D02*
X143896998Y-29460430D01*
X167870100Y-17982400D02*
X167870100Y-16882400D01*
X143993999Y-29557431D02*
X154362569Y-29557431D01*
X154362569Y-29557431D02*
X161420000Y-22500000D01*
X143896998Y-29460430D02*
X143993999Y-29557431D01*
X161420000Y-22500000D02*
X163352500Y-22500000D01*
X163352500Y-22500000D02*
X167870100Y-17982400D01*
X111000000Y-24500000D02*
X113900000Y-27400000D01*
X113900000Y-27400000D02*
X127200000Y-27400000D01*
X139480817Y-23800000D02*
X139585000Y-23904183D01*
X138000000Y-23800000D02*
X139480817Y-23800000D01*
X144294000Y-16121000D02*
X148983600Y-16121000D01*
X148983600Y-16121000D02*
X149120000Y-16257400D01*
X121770100Y-16882400D02*
X122870100Y-16882400D01*
X104572194Y-16882400D02*
X121770100Y-16882400D01*
X96954594Y-24500000D02*
X104572194Y-16882400D01*
X96000000Y-24500000D02*
X96954594Y-24500000D01*
X127499999Y-15412299D02*
X127870100Y-15782400D01*
X127870100Y-15782400D02*
X127870100Y-16882400D01*
X127499999Y-7000001D02*
X127499999Y-15412299D01*
X128500000Y-6000000D02*
X127499999Y-7000001D01*
X126770100Y-16882400D02*
X125152500Y-18500000D01*
X127870100Y-16882400D02*
X126770100Y-16882400D01*
X125152500Y-18500000D02*
X110400000Y-18500000D01*
X110400000Y-18500000D02*
X108100000Y-20800000D01*
X108100000Y-22400000D02*
X106000000Y-24500000D01*
X108100000Y-20800000D02*
X108100000Y-22400000D01*
X83577237Y-89077237D02*
X80852390Y-86352390D01*
X80852390Y-86352390D02*
X74335110Y-86352390D01*
X75375001Y-87392281D02*
X74635109Y-86652389D01*
X75375001Y-92300001D02*
X75375001Y-87392281D01*
X75050001Y-92625001D02*
X75375001Y-92300001D01*
X74635109Y-86652389D02*
X74335110Y-86352390D01*
X68374999Y-92625001D02*
X75050001Y-92625001D01*
X64800000Y-96200000D02*
X68374999Y-92625001D01*
X56520000Y-128260000D02*
X48570000Y-128260000D01*
X57220000Y-128260000D02*
X56520000Y-128260000D01*
X48570000Y-128260000D02*
X48570000Y-124880000D01*
X42000000Y-126800000D02*
X42000000Y-128500000D01*
X41000000Y-125800000D02*
X42000000Y-126800000D01*
X41150000Y-128500000D02*
X35000000Y-128500000D01*
X42000000Y-128500000D02*
X41150000Y-128500000D01*
X35000000Y-126800000D02*
X36000000Y-125800000D01*
X35000000Y-128500000D02*
X35000000Y-126800000D01*
X57186029Y-123000000D02*
X58000000Y-123813971D01*
X53500000Y-123000000D02*
X57186029Y-123000000D01*
X54170000Y-125744974D02*
X54170000Y-125250000D01*
X54830036Y-126405010D02*
X54170000Y-125744974D01*
X57541019Y-126405010D02*
X54830036Y-126405010D01*
X58000000Y-125946029D02*
X57541019Y-126405010D01*
X58000000Y-123813971D02*
X58000000Y-125946029D01*
X167000000Y-76500000D02*
X167999999Y-77499999D01*
X167999999Y-77499999D02*
X167999999Y-89000000D01*
X188985687Y-100434313D02*
X190640000Y-98780000D01*
X171065687Y-100434313D02*
X188985687Y-100434313D01*
X114600000Y-54300000D02*
X114200000Y-54700000D01*
X114200000Y-54700000D02*
X114200000Y-72300000D01*
X114200000Y-72300000D02*
X112700000Y-73800000D01*
X112700000Y-73800000D02*
X112700000Y-77800000D01*
X112700000Y-77800000D02*
X116500000Y-81600000D01*
X116500000Y-81600000D02*
X116500000Y-82000000D01*
X106649999Y-90429999D02*
X105800000Y-89580000D01*
X111544999Y-90755001D02*
X106975001Y-90755001D01*
X106975001Y-90755001D02*
X106649999Y-90429999D01*
X112500000Y-89800000D02*
X111544999Y-90755001D01*
X190640000Y-101320000D02*
X170820000Y-101320000D01*
X170820000Y-101320000D02*
X170500000Y-101000000D01*
X166500000Y-77500000D02*
X165500000Y-76500000D01*
X166500000Y-88000000D02*
X166500000Y-77500000D01*
X122600000Y-52680000D02*
X121080000Y-52680000D01*
X121080000Y-52680000D02*
X120600000Y-52200000D01*
X120600000Y-52200000D02*
X120600000Y-46498882D01*
X120600000Y-46498882D02*
X120849441Y-46249441D01*
X129000003Y-94875001D02*
X146924999Y-94875001D01*
X128025003Y-93900001D02*
X129000003Y-94875001D01*
X110800000Y-94200000D02*
X111099999Y-93900001D01*
X111099999Y-93900001D02*
X128025003Y-93900001D01*
X146924999Y-94875001D02*
X147049998Y-95000000D01*
X147049998Y-95000000D02*
X147800000Y-95000000D01*
X130700000Y-47800000D02*
X130400000Y-47500000D01*
X126564999Y-95835001D02*
X127800000Y-94600000D01*
X105800000Y-94660000D02*
X106975001Y-95835001D01*
X106975001Y-95835001D02*
X126564999Y-95835001D01*
X130000000Y-92400000D02*
X134100000Y-88300000D01*
X134100000Y-88300000D02*
X134100000Y-84100000D01*
X134100000Y-79375000D02*
X134100000Y-78950736D01*
X134100000Y-78950736D02*
X134100000Y-68100000D01*
X134100000Y-68100000D02*
X137000000Y-65200000D01*
X130400000Y-47500000D02*
X127300000Y-47500000D01*
X127200000Y-47600000D02*
X122600000Y-47600000D01*
X127300000Y-47500000D02*
X127200000Y-47600000D01*
X83000000Y-9000000D02*
X84000000Y-9000000D01*
X84000000Y-9000000D02*
X88000000Y-5000000D01*
X43000000Y-9000000D02*
X44000000Y-9000000D01*
X44000000Y-9000000D02*
X48000000Y-5000000D01*
X124500000Y-8000000D02*
X128500000Y-4000000D01*
X123000000Y-8000000D02*
X124500000Y-8000000D01*
X143868630Y2770000D02*
X145000000Y2770000D01*
X134345000Y2770000D02*
X143868630Y2770000D01*
X128500000Y-3075000D02*
X134345000Y2770000D01*
X128500000Y-4000000D02*
X128500000Y-3075000D01*
X164000000Y-4000000D02*
X168000000Y-8000000D01*
X163000000Y-4000000D02*
X164000000Y-4000000D01*
X178230000Y-4000000D02*
X185000000Y2770000D01*
X168000000Y-4000000D02*
X178230000Y-4000000D01*
X144500000Y-88000000D02*
X144500000Y-86000000D01*
X144500000Y-77500000D02*
X144500000Y-54000000D01*
X144500000Y-54000000D02*
X144000000Y-53500000D01*
X131000000Y-40500000D02*
X131000000Y-25000000D01*
X131000000Y-25000000D02*
X131000000Y-24500000D01*
X131000000Y-24500000D02*
X136000000Y-19500000D01*
X136000000Y-19500000D02*
X140000000Y-19500000D01*
X64874999Y-90125001D02*
X65200001Y-89799999D01*
X65200001Y-89799999D02*
X65500000Y-89500000D01*
X64874999Y-91050001D02*
X64874999Y-90125001D01*
X65824998Y-92000000D02*
X64874999Y-91050001D01*
X74750000Y-92000000D02*
X65824998Y-92000000D01*
X131500000Y-75375000D02*
X130875000Y-76000000D01*
X130875000Y-76000000D02*
X119000000Y-76000000D01*
X180000000Y-63500000D02*
X174000000Y-69500000D01*
X174000000Y-69500000D02*
X171500000Y-72000000D01*
X170500000Y-72000000D02*
X167500000Y-75000000D01*
X167500000Y-75000000D02*
X153500000Y-75000000D01*
X171500000Y-72000000D02*
X170500000Y-72000000D01*
X67750000Y-88500000D02*
X65500000Y-90750000D01*
X74750000Y-88500000D02*
X67750000Y-88500000D01*
X190640000Y-60680000D02*
X185320000Y-60680000D01*
X185320000Y-60680000D02*
X173000000Y-73000000D01*
X129500000Y-76625000D02*
X117875000Y-76625000D01*
X116500000Y-78000000D02*
X117875000Y-76625000D01*
X112000000Y-82500000D02*
X111500000Y-83000000D01*
X93364999Y-83135001D02*
X92500000Y-84000000D01*
X111500000Y-83000000D02*
X111364999Y-83135001D01*
X111364999Y-83135001D02*
X93364999Y-83135001D01*
X89000000Y-84000000D02*
X80500000Y-84000000D01*
X80500000Y-84000000D02*
X79500000Y-85000000D01*
X152800001Y-77625001D02*
X150125001Y-77625001D01*
X168000000Y-75500000D02*
X154925002Y-75500000D01*
X154925002Y-75500000D02*
X152800001Y-77625001D01*
X170000000Y-73500000D02*
X168000000Y-75500000D01*
X150125001Y-77625001D02*
X150000000Y-77500000D01*
X150000000Y-53070000D02*
X149990000Y-53060000D01*
X152500000Y-53090000D02*
X152530000Y-53060000D01*
X63300003Y-94000000D02*
X63300003Y-97300003D01*
X63300003Y-97300003D02*
X63500000Y-97500000D01*
X68327180Y-95400000D02*
X74800000Y-95400000D01*
X65400000Y-97600000D02*
X66127180Y-97600000D01*
X66127180Y-97600000D02*
X68327180Y-95400000D01*
X62500000Y-94000000D02*
X62500000Y-98000000D01*
X62500000Y-98000000D02*
X63000000Y-98500000D01*
X66600000Y-101600000D02*
X71800000Y-101600000D01*
X71800000Y-101600000D02*
X74600000Y-98800000D01*
X101000000Y3000000D02*
X104770000Y3000000D01*
X104770000Y3000000D02*
X105000000Y2770000D01*
X50460000Y-9000000D02*
X65000000Y5540000D01*
X48000000Y-9000000D02*
X50460000Y-9000000D01*
M02*
