M48
; DRILL file {KiCad 5.1.5-52549c5~84~ubuntu18.04.1} date Fri 21 Feb 2020 15:33:10 GMT
; FORMAT={-:-/ absolute / inch / decimal}
; #@! TF.CreationDate,2020-02-21T15:33:10+00:00
; #@! TF.GenerationSoftware,Kicad,Pcbnew,5.1.5-52549c5~84~ubuntu18.04.1
; #@! TF.FileFunction,Plated,1,2,PTH
FMAT,2
INCH
T1C0.0157
T2C0.0236
T3C0.0315
T4C0.0335
T5C0.0354
T6C0.0394
T7C0.0598
T8C0.1260
%
G90
G05
T1
X0.2559Y-1.2795
X0.2559Y-1.3583
X0.2736Y-2.8957
X0.2803Y-2.9777
X0.2902Y-1.2158
X0.3Y-1.3143
X0.3098Y-2.9383
X0.3365Y-2.6358
X0.374Y-1.3976
X0.3937Y-1.1122
X0.4379Y-3.1341
X0.4449Y-0.7441
X0.5315Y-1.3976
X0.5512Y-1.6732
X0.5709Y-3.1302
X0.5748Y-3.4134
X0.6102Y-1.5157
X0.6299Y-1.3091
X0.6346Y-2.9777
X0.6839Y-2.7906
X0.689Y-3.5276
X0.7283Y-0.689
X0.748Y-3.0315
X0.8435Y-2.8318
X0.8661Y-3.0315
X0.8829Y-3.4961
X0.9646Y-1.1811
X0.9693Y-2.8792
X1.1024Y-1.3189
X1.1342Y-3.3343
X1.1811Y-1.3189
X1.1811Y-2.9331
X1.2057Y-1.3435
X1.2205Y-2.9331
X1.3189Y-2.874
X1.5157Y-1.0827
X1.5157Y-3.2677
X1.5157Y-3.3071
X1.5945Y-1.063
X1.7126Y-3.4134
X1.7126Y-3.4449
X1.7913Y-3.4055
X1.8504Y-3.3071
X1.8504Y-3.3465
X1.9291Y-4.7244
X2.019Y-4.4797
X2.0276Y-4.1535
X2.0276Y-4.4094
X2.0472Y-3.622
X2.0899Y-4.6201
X2.0929Y-4.4058
X2.0965Y-3.2283
X2.1063Y-4.8425
X2.126Y-3.1102
X2.2047Y-0.9291
X2.2047Y-1.6339
X2.2362Y-1.1417
X2.2379Y-4.5931
X2.2638Y-4.5079
X2.2638Y-4.5394
X2.2795Y-0.9409
X2.3228Y-1.1102
X2.3249Y-0.8422
X2.3287Y-0.9488
X2.3543Y-0.8071
X2.3571Y-0.8812
X2.3571Y-0.9206
X2.3622Y-1.0111
X2.4213Y-4.4685
X2.4488Y-1.1112
X2.4606Y-3.7008
X2.4803Y-2.3228
X2.4803Y-3.6024
X2.4803Y-3.878
X2.4803Y-4.1535
X2.4921Y-3.7008
X2.4987Y-1.0994
X2.5Y-2.7165
X2.5Y-2.8524
X2.5Y-3.3268
X2.5Y-3.8386
X2.5509Y-0.9301
X2.5512Y-3.7874
X2.561Y-3.4055
X2.5659Y-3.3639
X2.5748Y-3.8425
X2.5787Y-3.5236
X2.5787Y-3.5728
X2.6181Y-4.3701
X2.6219Y-4.3031
X2.622Y-4.0
X2.6361Y-3.2936
X2.6378Y-1.122
X2.6378Y-2.0866
X2.6378Y-2.2441
X2.6378Y-3.0118
X2.6378Y-3.189
X2.6378Y-3.3268
X2.6575Y-4.3898
X2.6601Y-3.2112
X2.6772Y-2.0866
X2.6772Y-2.2441
X2.7139Y-1.912
X2.7165Y-2.9134
X2.7165Y-3.0315
X2.7362Y-1.8898
X2.7362Y-2.2441
X2.7362Y-2.815
X2.7362Y-3.8393
X2.7362Y-3.8976
X2.7409Y-0.7601
X2.7479Y-4.1634
X2.7756Y-2.2441
X2.9031Y-1.8795
X2.9134Y-1.7717
X2.9134Y-1.811
X2.9134Y-2.2047
X2.9266Y-3.3997
X2.937Y-3.8898
X2.9429Y-3.4843
X2.9429Y-3.622
X2.9449Y-3.7559
X2.9528Y-2.2047
X2.9724Y-0.5709
X2.9724Y-0.8071
X2.9724Y-1.0433
X3.0079Y-1.1535
X3.0118Y-1.6994
X3.0157Y-1.1969
X3.0315Y-1.7323
X3.0315Y-1.7717
X3.0512Y-3.1742
X3.0709Y-2.815
X3.1102Y-2.9134
X3.1299Y-3.3465
X3.1496Y-3.189
X3.1693Y-3.5433
X3.2117Y-3.5857
X3.2904Y-3.507
X3.3071Y-3.3317
X3.3465Y-2.2244
X3.3661Y0.1575
X3.3836Y-3.3442
X3.3889Y-3.4086
X3.4252Y-2.2441
X3.4427Y-3.2825
X3.4445Y-3.4051
X3.4646Y-2.2441
X3.4839Y-3.3657
X3.5039Y-3.3071
X3.5118Y-2.2008
X3.622Y-3.2087
X3.6417Y-3.3071
X3.7402Y-4.1142
X3.7608Y-4.1526
X3.8976Y-4.311
X3.937Y-1.7963
X3.9764Y0.1181
X3.9764Y-3.2087
X3.9961Y-4.1535
X4.0354Y-3.1299
X4.0354Y-4.1339
X4.1535Y-1.2165
X4.2717Y-4.4488
X4.2717Y-4.4803
X4.3307Y-3.0524
X4.3622Y-3.7087
X4.3701Y-2.8524
X4.4094Y-3.248
X4.4291Y-3.189
X4.4291Y-3.5354
X4.4291Y-4.4488
X4.4291Y-4.4803
X4.4488Y-3.622
X4.4882Y-3.0315
X4.5118Y-2.1378
X4.5276Y-3.0709
X4.5472Y-3.6467
X4.5472Y-4.6654
X4.5669Y-3.5827
X4.5866Y-3.0709
X4.5866Y-3.2283
X4.5919Y-2.8524
X4.6063Y-2.9528
X4.626Y-3.248
X4.685Y-1.811
X4.685Y-2.9921
X4.7244Y-3.0512
X4.7244Y-3.189
X4.7579Y-1.8208
X4.8421Y-2.7161
X4.8819Y-3.1496
X5.0Y-1.5108
X5.0079Y-1.0787
X5.0315Y-3.7244
X5.0394Y-1.6142
X5.0787Y-2.8346
X5.0787Y-2.9331
X5.0984Y-3.0167
X5.0984Y-3.0512
X5.1181Y-1.6535
X5.1181Y-3.6378
X5.1457Y-1.8819
X5.1575Y0.1575
X5.1575Y-1.5945
X5.1575Y-3.4055
X5.1772Y-2.9675
X5.1969Y-0.0591
X5.1969Y-1.4764
X5.2362Y-3.2874
X5.2795Y-3.125
X5.2795Y-3.311
X5.2953Y-4.0748
X5.2953Y-4.4685
X5.3509Y-0.9901
X5.374Y-2.2835
X5.3858Y-0.937
X5.3937Y-2.5669
X5.4309Y-1.0001
X5.4331Y-0.937
X5.4724Y-3.8848
X5.4724Y-3.9173
X5.4955Y-0.9411
X5.5009Y-0.9101
X5.5118Y-0.7677
X5.5156Y-3.2414
X5.5209Y-0.9901
X5.5209Y-1.0216
X5.5309Y-0.9001
X5.5609Y-1.0899
X5.6009Y-1.0899
X5.6496Y-3.248
X5.6509Y-0.9901
X5.6609Y-0.7901
X5.6693Y-2.1063
X5.6809Y-0.6347
X5.6809Y-1.1391
X5.689Y-3.0512
X5.689Y-3.3858
X5.689Y-3.4646
X5.7283Y-2.5106
X5.7283Y-3.2087
X5.7439Y-1.6451
X5.7598Y-2.5106
X5.7598Y-3.2087
X5.7677Y-3.622
X5.7874Y-3.248
X5.7972Y-3.3465
X5.8189Y-1.7795
X5.8189Y-3.7402
X5.8219Y-2.1611
X5.8509Y-0.9901
X5.8709Y-0.6401
X5.8773Y-1.767
X5.8909Y-0.7601
X5.9055Y-2.8346
X5.9055Y-3.0512
X5.9055Y-3.3268
X5.9732Y-1.7736
X5.9793Y-3.2087
X6.0285Y-2.9134
X6.0285Y-3.2087
X6.0404Y-1.7067
X6.0433Y-2.9528
X6.1102Y-1.7736
X6.1102Y-1.8346
X6.1114Y-1.6705
X6.1417Y-1.7736
X6.1575Y-1.5669
X6.1654Y-1.6263
X6.1769Y-3.0554
X6.1979Y-1.6263
X6.3189Y-3.0118
X6.3449Y-1.7736
X6.3513Y-1.6017
X6.378Y-2.9281
X6.3819Y-1.5771
X6.3849Y-1.7951
X6.4094Y-1.6929
X6.5157Y-3.0118
X6.5157Y-3.1693
X6.5551Y-2.7953
X6.5551Y-3.4646
X6.5709Y-1.0901
X6.5748Y-3.0118
X6.5949Y-1.5771
X6.6142Y-3.5039
X6.6242Y-1.6017
X6.6629Y-1.7951
X6.6929Y-2.8937
X6.7126Y-3.0266
X6.7126Y-3.9764
X6.7349Y-3.9541
X6.752Y-2.9921
X6.811Y-2.874
X6.9929Y-1.7742
X7.0459Y-3.7161
X7.0866Y-2.5
X7.1654Y-1.2943
X7.185Y-4.8228
X7.185Y-4.9409
X7.2047Y-1.3583
X1.9654Y-4.878
X1.9654Y-4.9311
X1.9988Y-4.878
X1.9988Y-4.9311
X2.0323Y-4.878
X2.0323Y-4.9311
X2.0657Y-4.878
X2.0657Y-4.9311
X2.0992Y-4.878
X2.0992Y-4.9311
X2.1327Y-4.878
X2.1327Y-4.9311
X2.1661Y-4.878
X2.1661Y-4.9311
X2.1996Y-4.878
X2.1996Y-4.9311
T3
X3.4646Y-0.1969
X3.4646Y-0.2756
X3.4646Y-0.3543
X0.5854Y-2.1804
X0.6642Y-2.1804
X0.7429Y-2.1804
X1.6929Y-0.1969
X1.6929Y-0.2756
X1.6929Y-0.3543
X1.8898Y-0.1969
X1.8898Y-0.2756
X1.8898Y-0.3543
X4.1732Y-0.8858
X4.1732Y-0.9646
X4.1732Y-1.0433
X0.3886Y-0.9993
X0.4673Y-0.9993
X0.5461Y-0.9993
X4.8425Y-0.1575
X4.8425Y-0.2362
X4.8425Y-0.315
X0.3886Y-2.6725
X0.4673Y-2.6725
X0.5461Y-2.6725
X3.7795Y-0.8858
X3.7795Y-0.9646
X3.7795Y-1.0433
X3.2677Y-0.1969
X3.2677Y-0.2756
X3.2677Y-0.3543
X6.4173Y-0.1575
X6.4173Y-0.2362
X6.4173Y-0.315
X5.0591Y-0.1575
X5.0591Y-0.2362
X5.0591Y-0.315
X6.6142Y-0.1575
X6.6142Y-0.2362
X6.6142Y-0.315
X3.9764Y-0.8858
X3.9764Y-0.9646
X3.9764Y-1.0433
X4.3701Y-0.8858
X4.3701Y-0.9646
X4.3701Y-1.0433
X0.5854Y-1.9836
X0.6642Y-1.9836
X0.7429Y-1.9836
T4
X1.4173Y-4.9567
X1.6142Y-4.9567
T5
X1.5929Y-4.4685
X1.6429Y-4.4685
X1.6929Y-4.4685
X1.7429Y-4.4685
T6
X0.7626Y-0.9993
X0.4921Y-0.1969
X0.5467Y-0.3087
X0.6012Y-0.1969
X0.6557Y-0.3087
X0.7102Y-0.1969
X0.7648Y-0.3087
X0.8193Y-0.1969
X0.8738Y-0.3087
X0.9283Y-0.1969
X7.126Y-1.1811
X5.6055Y-3.989
X5.6055Y-4.089
X5.6055Y-4.189
X5.6055Y-4.289
X5.6055Y-4.389
X5.6055Y-4.489
X5.6055Y-4.589
X5.6055Y-4.689
X6.5945Y-1.4764
X6.3976Y-1.4764
X5.8049Y-1.9886
X5.8049Y-2.0886
X5.9049Y-1.9886
X5.9049Y-2.0886
X6.0049Y-1.9886
X6.0049Y-2.0886
X6.1049Y-1.9886
X6.1049Y-2.0886
X6.2049Y-1.9886
X6.2049Y-2.0886
X6.3049Y-1.9886
X6.3049Y-2.0886
X6.4049Y-1.9886
X6.4049Y-2.0886
X6.5049Y-1.9886
X6.5049Y-2.0886
X6.6049Y-1.9886
X6.6049Y-2.0886
X6.7049Y-1.9886
X6.7049Y-2.0886
X6.8049Y-1.9886
X6.8049Y-2.0886
X6.9049Y-1.9886
X6.9049Y-2.0886
X7.0049Y-1.9886
X7.0049Y-2.0886
X7.1049Y-1.9886
X7.1049Y-2.0886
X7.2049Y-1.9886
X7.2049Y-2.0886
X7.3049Y-1.9886
X7.3049Y-2.0886
X7.4049Y-1.9886
X7.4049Y-2.0886
X7.5049Y-1.9886
X7.5049Y-2.0886
X2.2638Y-2.1307
X2.2638Y-2.2307
X2.2638Y-2.3307
X2.2638Y-2.4307
X2.2638Y-2.5307
X2.2638Y-2.6307
X2.2638Y-2.7307
X2.2638Y-2.8307
X2.2638Y-2.9307
X2.2638Y-3.0307
X2.2638Y-3.1307
X2.2638Y-3.2307
X2.2638Y-3.3307
X2.2638Y-3.4307
X2.2638Y-3.5307
X2.2638Y-3.6307
X2.2638Y-3.7307
X2.2638Y-3.8307
X2.2638Y-3.9307
X2.2638Y-4.0307
X2.2638Y-4.1307
X2.2638Y-4.2307
X2.2638Y-4.3307
X2.3638Y-2.1307
X2.3638Y-2.2307
X2.3638Y-2.3307
X2.3638Y-2.4307
X2.3638Y-2.5307
X2.3638Y-2.6307
X2.3638Y-2.7307
X2.3638Y-2.8307
X2.3638Y-2.9307
X2.3638Y-3.0307
X2.3638Y-3.1307
X2.3638Y-3.2307
X2.3638Y-3.3307
X2.3638Y-3.4307
X2.3638Y-3.5307
X2.3638Y-3.6307
X2.3638Y-3.7307
X2.3638Y-3.8307
X2.3638Y-3.9307
X2.3638Y-4.0307
X2.3638Y-4.1307
X2.3638Y-4.2307
X2.3638Y-4.3307
X1.4764Y-2.3622
X1.4764Y-2.4622
X1.4764Y-2.5622
X1.4764Y-2.6622
X1.4764Y-2.7622
X1.4764Y-2.8622
X1.4764Y-2.9622
X1.4764Y-3.0622
X0.4921Y0.5906
X0.5467Y0.4787
X0.6012Y0.5906
X0.6557Y0.4787
X0.7102Y0.5906
X0.7648Y0.4787
X0.8193Y0.5906
X0.8738Y0.4787
X0.9283Y0.5906
X1.4764Y-1.5748
X1.4764Y-1.6748
X1.4764Y-1.7748
X1.4764Y-1.8748
X5.7087Y0.4362
X5.7087Y0.3272
X5.7087Y0.2181
X5.7087Y0.1091
X5.7087Y0.0
X5.8205Y0.3817
X5.8205Y0.2726
X5.8205Y0.1636
X5.8205Y0.0545
X1.8846Y-0.9599
X6.924Y-1.1811
X3.2626Y-0.9599
X5.3776Y-1.4764
X5.4776Y-1.4764
X5.5776Y-1.4764
X5.6776Y-1.4764
X5.7776Y-1.4764
X5.8776Y-1.4764
X5.9776Y-1.4764
X6.0776Y-1.4764
X7.5055Y-4.1492
X7.5055Y-4.2492
X7.5055Y-4.3492
X7.5055Y-4.4492
X7.5055Y-4.5492
X7.5055Y-4.6492
X7.5055Y-4.7492
X7.5055Y-4.8492
X7.5055Y-4.9492
X7.5055Y-5.0492
X3.4595Y-0.9599
X6.924Y-1.4764
X7.024Y-1.4764
X7.124Y-1.4764
X7.224Y-1.4764
X0.7626Y-1.4324
X5.6055Y-3.089
X5.6055Y-3.189
X5.6055Y-3.289
X5.6055Y-3.389
X5.6055Y-3.489
X5.6055Y-3.589
X5.6055Y-3.689
X5.6055Y-3.789
X7.3228Y-1.1811
X3.4595Y-0.6647
X0.7626Y-3.1056
X4.8374Y-0.9599
X7.2835Y0.4362
X7.2835Y0.3272
X7.2835Y0.2181
X7.2835Y0.1091
X7.2835Y0.0
X7.3953Y0.3817
X7.3953Y0.2726
X7.3953Y0.1636
X7.3953Y0.0545
X4.8268Y-1.874
X4.8268Y-1.974
X4.8268Y-2.074
X4.8268Y-2.174
X4.8268Y-2.274
X1.7913Y-2.5591
X5.0343Y-0.9599
X6.6091Y-0.9599
X1.8846Y-0.6647
X2.5591Y0.4362
X2.5591Y0.3272
X2.5591Y0.2181
X2.5591Y0.1091
X2.5591Y0.0
X2.6709Y0.3817
X2.6709Y0.2726
X2.6709Y0.1636
X2.6709Y0.0545
X1.6878Y-0.9599
X4.1654Y-2.1268
X4.1654Y-2.2268
X4.1654Y-2.3268
X4.1654Y-2.4268
X4.1654Y-2.5268
X4.1654Y-2.6268
X4.1654Y-2.7268
X4.1654Y-2.8268
X4.1654Y-2.9268
X4.1654Y-3.0268
X4.1654Y-3.1268
X4.1654Y-3.2268
X4.1654Y-3.3268
X4.1654Y-3.4268
X4.1654Y-3.5268
X4.1654Y-3.6268
X4.1654Y-3.7268
X4.1654Y-3.8268
X4.1654Y-3.9268
X4.1654Y-4.0268
X4.1654Y-4.1268
X4.1654Y-4.2268
X4.1654Y-4.3268
X4.2654Y-2.1268
X4.2654Y-2.2268
X4.2654Y-2.3268
X4.2654Y-2.4268
X4.2654Y-2.5268
X4.2654Y-2.6268
X4.2654Y-2.7268
X4.2654Y-2.8268
X4.2654Y-2.9268
X4.2654Y-3.0268
X4.2654Y-3.1268
X4.2654Y-3.2268
X4.2654Y-3.3268
X4.2654Y-3.4268
X4.2654Y-3.5268
X4.2654Y-3.6268
X4.2654Y-3.7268
X4.2654Y-3.8268
X4.2654Y-3.9268
X4.2654Y-4.0268
X4.2654Y-4.1268
X4.2654Y-4.2268
X4.2654Y-4.3268
X0.4921Y-3.8386
X0.5467Y-3.9504
X0.6012Y-3.8386
X0.6557Y-3.9504
X0.7102Y-3.8386
X0.7648Y-3.9504
X0.8193Y-3.8386
X0.8738Y-3.9504
X0.9283Y-3.8386
X7.5055Y-3.289
X7.5055Y-3.389
X7.5055Y-3.489
X7.5055Y-3.589
X7.5055Y-3.689
X7.5055Y-3.789
X7.5055Y-3.889
X7.5055Y-3.989
X6.4122Y-0.9599
X4.1339Y0.4362
X4.1339Y0.3272
X4.1339Y0.2181
X4.1339Y0.1091
X4.1339Y0.0
X4.2457Y0.3817
X4.2457Y0.2726
X4.2457Y0.1636
X4.2457Y0.0545
X4.8374Y-0.6647
X0.7626Y-2.6725
X0.7626Y-1.5899
X0.4921Y-4.626
X0.5467Y-4.7378
X0.6012Y-4.626
X0.6557Y-4.7378
X0.7102Y-4.626
X0.7648Y-4.7378
X0.8193Y-4.626
X0.8738Y-4.7378
X0.9283Y-4.626
X6.4122Y-0.6647
X0.9595Y-2.6725
X0.7626Y-3.2631
X5.6055Y-2.189
X5.6055Y-2.289
X5.6055Y-2.389
X5.6055Y-2.489
X5.6055Y-2.589
X5.6055Y-2.689
X5.6055Y-2.789
X5.6055Y-2.889
X6.6091Y-0.6647
X1.7913Y-2.7421
X7.5055Y-2.389
X7.5055Y-2.489
X7.5055Y-2.589
X7.5055Y-2.689
X7.5055Y-2.789
X7.5055Y-2.889
X7.5055Y-2.989
X7.5055Y-3.089
X3.2626Y-0.6647
X5.0343Y-0.6647
X0.9595Y-0.9993
X1.6878Y-0.6647
X1.7913Y-2.9252
T7
X4.8228Y0.4921
X5.0228Y0.4921
T8
X2.615Y0.7102
X2.615Y-0.274
X0.2181Y-3.8945
X1.2024Y-3.8945
X4.1898Y0.7102
X4.1898Y-0.274
X0.2181Y-4.6819
X1.2024Y-4.6819
X7.2441Y-3.4646
X7.5591Y-0.6693
X0.1181Y-0.6693
X4.0551Y-4.8819
X0.2181Y-0.2528
X1.2024Y-0.2528
X3.4252Y0.748
X0.2181Y0.5346
X1.2024Y0.5346
X5.7646Y0.7102
X5.7646Y-0.274
X0.1181Y-3.4646
X7.3394Y0.7102
X7.3394Y-0.274
T2
G00X1.9122Y-4.887
M15
G01X1.9122Y-4.9461
M16
G05
G00X1.9122Y-5.0339
M15
G01X1.9122Y-5.0654
M16
G05
G00X2.2528Y-4.887
M15
G01X2.2528Y-4.9461
M16
G05
G00X2.2528Y-5.0339
M15
G01X2.2528Y-5.0654
M16
G05
G00X1.378Y-5.0768
M15
G01X1.378Y-5.0492
M16
G05
G00X1.6535Y-5.0492
M15
G01X1.6535Y-5.0768
M16
G05
T0
M30
